<svg xmlns="http://www.w3.org/2000/svg" viewBox="0 0 59.82721 58.3316"><defs><style>.cls-1{fill:#fff;}</style></defs><g id="Layer_2" data-name="Layer 2"><g id="Layer_1-2" data-name="Layer 1"><path class="cls-1" d="M42.67694,25.277a3.51049,3.51049,0,0,0-3.31561,1.89447,5.169,5.169,0,0,0-.54852,1.79468h5.25982c.64832,0,1.12171,0,1.42084-.02466a1.21658,1.21658,0,0,0,.57355-.19965V28.4928a2.86843,2.86843,0,0,0-.1496-.92237A3.29886,3.29886,0,0,0,42.67694,25.277Z"/><path class="cls-1" d="M21.2887,26.00012c-.24939-.77319-.47364-1.52093-.723-2.29339-.249-.77283-.47338-1.49591-.673-2.21869-.19971-.698-.374-1.34632-.54852-1.94458h-.04975a30.6649,30.6649,0,0,1-.84759,3.21588c-.3739,1.19635-.74774,2.44287-1.14673,3.68945-.32416,1.27124-.72272,2.44257-1.09662,3.4895h6.33142c-.14953-.52343-.34887-1.14636-.57312-1.79467C21.73743,27.47064,21.51306,26.74792,21.2887,26.00012Z"/><path class="cls-1" d="M49.23267,0H10.59442A10.58566,10.58566,0,0,0,0,10.59448v37.1427A10.58556,10.58556,0,0,0,10.59442,58.3316H49.23267A10.58539,10.58539,0,0,0,59.82721,47.73718V10.59448A10.58549,10.58549,0,0,0,49.23267,0ZM31.68353,41.156H26.47345a.37584.37584,0,0,1-.39856-.274l-2.04443-5.98261H14.75732L12.86285,40.7821a.43646.43646,0,0,1-.47338.34931H7.70282c-.27441,0-.34918-.1496-.27441-.44873l8.02691-23.00861c.07477-.24939.14954-.47375.24939-.77289a8.72545,8.72545,0,0,0,.14954-1.62042.24729.24729,0,0,1,.19971-.27405h6.45623c.17432,0,.29914.07483.32379.19928l9.09894,25.55146C32.00769,41.03149,31.93292,41.156,31.68353,41.156ZM51.25208,31.2099c-.04975.47369-.07483.82257-.09986,1.04681a.37175.37175,0,0,1-.34888.32416c-.14947,0-.42358.02515-.82287.04981a11.7404,11.7404,0,0,1-1.44544.07476c-.57354,0-1.17175-.09942-1.8197-.09942H38.81281a5.49772,5.49772,0,0,0,.77288,2.21863,3.95138,3.95138,0,0,0,1.82007,1.49554,7.75755,7.75755,0,0,0,3.19037.62323A14.99246,14.99246,0,0,0,47.1886,36.669a9.356,9.356,0,0,0,2.21869-.57318c.12451-.0998.19928-.05.19928.19927v3.814a1.243,1.243,0,0,1-.04975.29913.58038.58038,0,0,1-.17462.17463,10.66822,10.66822,0,0,1-2.49267.74774,16.83156,16.83156,0,0,1-3.53955.29913,11.81557,11.81557,0,0,1-4.7862-.87231,8.3884,8.3884,0,0,1-3.141-2.3686,9.13893,9.13893,0,0,1-1.71985-3.26513,12.91816,12.91816,0,0,1,.09943-7.60333,10.17648,10.17648,0,0,1,1.86981-3.4151,9.03224,9.03224,0,0,1,3.01617-2.36786,9.41215,9.41215,0,0,1,4.16285-.77314,9.00263,9.00263,0,0,1,3.86413.77314,6.87027,6.87027,0,0,1,2.61725,1.99389,9.13358,9.13358,0,0,1,1.49591,2.842,9.81412,9.81412,0,0,1,.47333,3.0412C51.30182,30.21271,51.2771,30.73615,51.25208,31.2099Z"/></g></g></svg>