<svg xmlns="http://www.w3.org/2000/svg" viewBox="0 0 59.99984 58.49984"><defs><style>.cls-1{fill:#fff;}</style></defs><g id="Layer_2" data-name="Layer 2"><g id="Layer_1-2" data-name="Layer 1"><path class="cls-1" d="M49.37487,0H10.625A10.61606,10.61606,0,0,0,0,10.625v37.2499a10.61606,10.61606,0,0,0,10.625,10.625h38.7499a10.61606,10.61606,0,0,0,10.625-10.625V10.625A10.61606,10.61606,0,0,0,49.37487,0ZM36.7499,41.32488h-5.225a.37743.37743,0,0,1-.4-.275l-2.05-5.95h-9.3l-1.9,5.875a.43754.43754,0,0,1-.475.35H12.7c-.275,0-.35-.15-.275-.45L20.475,17.7c.075-.25.15-.525.25-.825a8.733,8.733,0,0,0,.15-1.625.24769.24769,0,0,1,.2-.275h6.475c.2,0,.3.075.325.2l9.125,25.74993C37.0749,41.19988,36.9999,41.32488,36.7499,41.32488Zm8.5-.375c0,.275-.1.4-.325.4h-4.9a.34979.34979,0,0,1-.375-.4V21.7c0-.25.1-.35.325-.35h4.95c.225,0,.325.125.325.35Zm-.525-22.57495a2.93964,2.93964,0,0,1-2.275.875,3.09385,3.09385,0,0,1-2.225-.875,3.2478,3.2478,0,0,1-.85-2.3,2.94131,2.94131,0,0,1,.9-2.225,3.20165,3.20165,0,0,1,2.225-.875,2.99358,2.99358,0,0,1,2.275.875,3.15622,3.15622,0,0,1,.825,2.225A3.16362,3.16362,0,0,1,44.72488,18.37495Z"/><path class="cls-1" d="M26.32493,26.07494c-.25-.775-.475-1.525-.725-2.3s-.475-1.5-.675-2.225c-.2-.7-.375-1.35-.55-1.95h-.05a30.69629,30.69629,0,0,1-.85,3.225c-.375,1.2-.75,2.45-1.15,3.7-.35,1.275-.725,2.45-1.1,3.5h6.35c-.15-.525-.35-1.15-.575-1.8C26.77492,27.54993,26.54993,26.82494,26.32493,26.07494Z"/></g></g></svg>