<svg xmlns="http://www.w3.org/2000/svg" viewBox="0 0 38.38344 55.21028"><defs><style>.cls-1{fill:none;stroke:#fff;stroke-width:3.38355px;}</style></defs><g id="Layer_2" data-name="Layer 2"><g id="Layer_1-2" data-name="Layer 1"><g id="Group"><path id="Rectangle_55" data-name="Rectangle 55" class="cls-1" d="M36.69166,10.32954a8.63779,8.63779,0,0,1-8.63779,8.6378H19.19172V1.69177h8.86215a8.63778,8.63778,0,0,1,8.63779,8.63777Z"/><path id="Rectangle_55_2" data-name="Rectangle 55_2" class="cls-1" d="M1.69177,10.32954a8.63779,8.63779,0,0,0,8.6378,8.6378h8.86215V1.69177H10.32957a8.63779,8.63779,0,0,0-8.6378,8.63777Z"/><path id="Rectangle_55_3" data-name="Rectangle 55_3" class="cls-1" d="M1.69177,27.60536a8.63779,8.63779,0,0,0,8.6378,8.63779h8.86215V18.96758H10.32957a8.63778,8.63778,0,0,0-8.6378,8.63778Z"/><path id="Rectangle_55_4" data-name="Rectangle 55_4" class="cls-1" d="M1.69177,44.88072a8.68553,8.68553,0,0,0,8.69353,8.63779h0a8.79835,8.79835,0,0,0,8.80642-8.75V36.24292H10.32957a8.63779,8.63779,0,0,0-8.6378,8.6378Z"/><path id="Rectangle_55_5" data-name="Rectangle 55_5" class="cls-1" d="M19.19172,27.60536a8.63778,8.63778,0,0,0,8.63779,8.63779h.22436a8.63778,8.63778,0,0,0,8.63779-8.63779h0a8.63777,8.63777,0,0,0-8.63779-8.63778h-.22436a8.63777,8.63777,0,0,0-8.63779,8.63778Z"/></g></g></g></svg>