<svg xmlns="http://www.w3.org/2000/svg" viewBox="0 0 59.9998 58.49981"><defs><style>.cls-1{fill:#fff;}</style></defs><g id="Layer_2" data-name="Layer 2"><g id="Layer_1-2" data-name="Layer 1"><path class="cls-1" d="M37.14988,25.57492a6.16288,6.16288,0,0,0-2.825.65,5.60427,5.60427,0,0,0-2.125,1.85,5.542,5.542,0,0,0-.825,3.175,6.96611,6.96611,0,0,0,.425,2.57495,4.88568,4.88568,0,0,0,1.125,1.775,4.31955,4.31955,0,0,0,1.7,1,6.545,6.545,0,0,0,2.075.325c.375,0,.725-.025,1.05-.05a2.12987,2.12987,0,0,0,.9-.125v-11a6.3956,6.3956,0,0,0-.675-.125C37.69987,25.59993,37.42487,25.57492,37.14988,25.57492Z"/><path class="cls-1" d="M49.37485,0H10.625A10.616,10.616,0,0,0,0,10.625v37.2499a10.616,10.616,0,0,0,10.625,10.625h38.7499a10.616,10.616,0,0,0,10.62495-10.625V10.625A10.616,10.616,0,0,0,49.37485,0ZM21.79994,40.94988c0,.275-.125.4-.35.4h-4.9c-.225,0-.325-.125-.325-.4V15.3c0-.225.125-.325.35-.325h4.875a.28247.28247,0,0,1,.325.25.09175.09175,0,0,1,.025.075Zm22.3249-.75a19.08941,19.08941,0,0,1-4.075,1.2,21.8334,21.8334,0,0,1-3.85.35,12.42936,12.42936,0,0,1-5.375-1.125,8.71592,8.71592,0,0,1-3.775-3.4,10.8173,10.8173,0,0,1-1.375-5.7,10.26756,10.26756,0,0,1,1.375-5.275,10.3818,10.3818,0,0,1,3.975-3.875,12.78747,12.78747,0,0,1,6.325-1.45,4.46282,4.46282,0,0,1,.525.025c.225.025.475.025.775.05V13.1c0-.175.075-.275.25-.275h5.075a.22421.22421,0,0,1,.25.175V36.84987c0,.45.025.95.05,1.5.05.525.075,1.025.1,1.45A.406.406,0,0,1,44.12484,40.19986Z"/></g></g></svg>