<svg xmlns="http://www.w3.org/2000/svg" viewBox="0 0 59.9998 58.49981"><defs><style>.cls-1{fill:#fff;}</style></defs><g id="Layer_2" data-name="Layer 2"><g id="Layer_1-2" data-name="Layer 1"><path class="cls-1" d="M24.62492,20.29994a7.33566,7.33566,0,0,0-2.95-.5c-.65,0-1.225,0-1.7.025a5.72372,5.72372,0,0,0-1.025.025v8.4c.35.025.675.05.975.05h1.325a9.33843,9.33843,0,0,0,2.875-.45,4.29933,4.29933,0,0,0,2.05-1.325,3.86314,3.86314,0,0,0,.775-2.575,4.11483,4.11483,0,0,0-.575-2.225A3.62527,3.62527,0,0,0,24.62492,20.29994Z"/><path class="cls-1" d="M49.37484,0H10.625A10.616,10.616,0,0,0,0,10.625V47.87484a10.616,10.616,0,0,0,10.625,10.625H49.37484a10.616,10.616,0,0,0,10.625-10.625V10.625A10.616,10.616,0,0,0,49.37484,0ZM30.89989,29.1249a8.56511,8.56511,0,0,1-4.025,3.05,16.20253,16.20253,0,0,1-5.625.85c-.6,0-1,0-1.25-.025s-.6-.025-1.075-.025v8.025a.31109.31109,0,0,1-.275.35H13.8c-.2,0-.3-.1-.3-.325V15.3c0-.175.075-.275.25-.275.425,0,.825,0,1.4-.025.6-.025,1.225-.025,1.9-.05s1.4-.025,2.175-.05,1.525-.025,2.275-.025a14.69992,14.69992,0,0,1,5.15.775,8.9275,8.9275,0,0,1,3.35,2.05,7.95985,7.95985,0,0,1,1.825,2.85,9.56874,9.56874,0,0,1,.575,3.25A8.93772,8.93772,0,0,1,30.89989,29.1249Zm17.725,9.725a6.26481,6.26481,0,0,1-2.8,2.225,11.45464,11.45464,0,0,1-4.525.8,17.221,17.221,0,0,1-3.4-.325,10.08408,10.08408,0,0,1-2.55-.8.49167.49167,0,0,1-.275-.475v-4.35a.27142.27142,0,0,1,.1-.225.19034.19034,0,0,1,.225.025,10.70168,10.70168,0,0,0,3.1,1.225,11.63853,11.63853,0,0,0,2.95.375,4.77183,4.77183,0,0,0,2.075-.35,1.16139,1.16139,0,0,0,.675-1.05,1.32453,1.32453,0,0,0-.6-1,10.60257,10.60257,0,0,0-2.45-1.175,15.29576,15.29576,0,0,1-3.55-1.8,6.473,6.473,0,0,1-1.9-2.125,5.36407,5.36407,0,0,1-.575-2.55,5.87989,5.87989,0,0,1,.85-3.025,6.16247,6.16247,0,0,1,2.625-2.3,9.69439,9.69439,0,0,1,4.425-.875,21.55357,21.55357,0,0,1,3.1.225,8.79688,8.79688,0,0,1,2.15.575.43922.43922,0,0,1,.25.225,1.2549,1.2549,0,0,1,.05.3v4.075a.30768.30768,0,0,1-.125.25.66631.66631,0,0,1-.45,0,8.84845,8.84845,0,0,0-2.4-.85,13.17936,13.17936,0,0,0-2.8-.325,5.033,5.033,0,0,0-1.5.175,1.28371,1.28371,0,0,0-.775.5,1.325,1.325,0,0,0-.2.675,1.1121,1.1121,0,0,0,.25.65,2.82131,2.82131,0,0,0,.85.675c.575.3,1.175.575,1.775.825a18.107,18.107,0,0,1,3.85,1.825,5.81685,5.81685,0,0,1,1.975,2.075,5.3967,5.3967,0,0,1,.575,2.575A5.81675,5.81675,0,0,1,48.62484,38.84986Z"/></g></g></svg>