<svg xmlns="http://www.w3.org/2000/svg" viewBox="0 0 59.77924 58.28473"><defs><style>.cls-1{fill:#fff;}</style></defs><g id="Layer_2" data-name="Layer 2"><g id="Layer_1-2" data-name="Layer 1"><path class="cls-1" d="M49.1933,0H10.58588A10.577,10.577,0,0,0,0,10.58588v37.113A10.577,10.577,0,0,0,10.58588,58.28473H49.1933A10.57705,10.57705,0,0,0,59.77924,47.69885v-37.113A10.577,10.577,0,0,0,49.1933,0ZM31.98187,41.0235c-.0249.09961-.12457.0249-.274.0498H26.004c-.39856,0-.67255-.0249-.84693-.274-.52307-1.04615-1.071-2.06739-1.59411-3.11353-.523-1.02124-1.096-2.06732-1.69373-3.13837s-1.19555-2.14209-1.79339-3.23809H20.026c-.52307,1.071-1.09595,2.14209-1.66882,3.21313s-1.14575,2.14209-1.69373,3.18823c-.57287,1.04615-1.14575,2.11719-1.71869,3.13843-.09961.24909-.29889.274-.57287.274H8.89215c-.09967,0-.17438.0498-.17438-.07471a.34589.34589,0,0,1,.04981-.274L16.514,28.07129,8.96686,15.29352c-.07471-.09967-.09961-.19928-.04981-.24909a.28886.28886,0,0,1,.24909-.09967h5.65411a1.47032,1.47032,0,0,1,.3487.04987.70594.70594,0,0,1,.24908.22412c.47327,1.07111,1.02124,2.14209,1.59412,3.21313.59777,1.071,1.17065,2.11719,1.79339,3.16333.59778,1.04615,1.14575,2.09229,1.66883,3.16333h.0498c.52307-1.09594,1.071-2.167,1.619-3.21313S23.264,19.45312,23.83691,18.407c.57294-1.04614,1.12091-2.11719,1.66889-3.13836a.42349.42349,0,0,1,.14941-.24909.47471.47471,0,0,1,.32379-.0498h5.25562a.22937.22937,0,0,1,.274.17431c.0249.02491-.02491.12458-.07471.17438L23.96149,27.64789l7.97058,13.07672A.42876.42876,0,0,1,31.98187,41.0235Zm18.85535-.97144a19.02278,19.02278,0,0,1-4.06,1.19562,21.97582,21.97582,0,0,1-3.83581.34869,12.3829,12.3829,0,0,1-5.35523-1.12085A8.68353,8.68353,0,0,1,33.82507,37.088a10.77731,10.77731,0,0,1-1.36993-5.679,10.22915,10.22915,0,0,1,1.36993-5.25562,10.34323,10.34323,0,0,1,3.96033-3.86072A12.741,12.741,0,0,1,44.08716,20.848a4.4497,4.4497,0,0,1,.52307.0249c.22418.02491.47327.02491.77216.04981v-7.871c0-.17432.0747-.274.24908-.274h5.05634a.22344.22344,0,0,1,.24908.17438V36.71442c0,.4483.0249.94647.0498,1.49444.04981.52307.07471,1.02124.09961,1.4447A.40442.40442,0,0,1,50.83722,40.05206Z"/><path class="cls-1" d="M43.88788,25.4809a6.14073,6.14073,0,0,0-2.81458.64758,5.58409,5.58409,0,0,0-2.11718,1.8432,5.5214,5.5214,0,0,0-.822,3.16333,6.941,6.941,0,0,0,.4234,2.56549A4.86783,4.86783,0,0,0,39.67847,35.469a4.30241,4.30241,0,0,0,1.69372.99634,6.51964,6.51964,0,0,0,2.06739.32379c.37359,0,.72229-.0249,1.04608-.0498a2.178,2.178,0,0,0,.89673-.12457V25.65521a6.37406,6.37406,0,0,0-.67255-.12451C44.43585,25.5058,44.16187,25.4809,43.88788,25.4809Z"/></g></g></svg>