<svg xmlns="http://www.w3.org/2000/svg" viewBox="0 0 91.49982 49.3124"><defs><style>.cls-1{fill:#f4f4f5;}.cls-2{fill:#2a5caa;}.cls-3{fill:#41b0e4;}</style></defs><g id="Layer_2" data-name="Layer 2"><g id="Layer_1-2" data-name="Layer 1"><rect class="cls-1" width="91.49982" height="49.3124" rx="4.73839"/><polygon class="cls-2" points="27.735 14.411 27.735 22.08 20.447 22.08 20.447 14.411 14.769 14.411 14.769 34.901 20.447 34.901 20.447 27.115 27.735 27.115 27.735 34.901 33.414 34.901 33.414 14.411 27.735 14.411"/><path class="cls-2" d="M36.34029,24.71465V24.656A10.52573,10.52573,0,0,1,47.14114,14.0017,10.0316,10.0316,0,0,1,55.83432,18.275L51.561,21.5826a5.48642,5.48642,0,0,0-4.47845-2.40009c-2.86864,0-4.88809,2.42939-4.88809,5.41493v.0586c0,3.07345,2.01945,5.47354,4.88809,5.47354a5.59525,5.59525,0,0,0,4.62466-2.488l4.27364,3.04414a10.3324,10.3324,0,0,1-9.07381,4.625,10.40451,10.40451,0,0,1-10.56674-10.596"/><path class="cls-2" d="M68.33257,30.33451c1.727,0,2.72211-.673,2.72211-1.87324v-.05861c0-1.11229-.87817-1.84394-2.78072-1.84394H63.942v3.77579ZM67.513,22.5778c1.727,0,2.69281-.58514,2.69281-1.78534v-.0586c0-1.11229-.87817-1.75635-2.57559-1.75635H63.942V22.5778Zm-9.10311-8.16635H68.918c2.5759,0,4.39054.64406,5.59074,1.844a4.49307,4.49307,0,0,1,1.3171,3.30756v.05861a4.74264,4.74264,0,0,1-3.16135,4.56636c2.488.81957,4.06883,2.22427,4.06883,5.005v.05861c0,3.51237-2.86863,5.64935-7.75672,5.64935H58.40989Z"/><polygon class="cls-3" points="27.733 20.279 14.766 20.279 14.766 28.764 27.733 28.764 27.733 34.901 36.271 24.527 27.733 14.412 27.733 20.279"/></g></g></svg>