<svg xmlns="http://www.w3.org/2000/svg" xmlns:xlink="http://www.w3.org/1999/xlink" viewBox="0 0 91.49982 49.3124"><defs><style>.cls-1{fill:url(#linear-gradient);}.cls-2{fill:none;}.cls-3{fill:#f4f4f5;}.cls-4{fill:#c4161c;}.cls-5{clip-path:url(#clip-path);}.cls-6{mask:url(#mask);}.cls-7{fill:url(#linear-gradient-2);}.cls-8{fill:#a7a9ac;}.cls-9{fill:#939598;}.cls-10{clip-path:url(#clip-path-2);}.cls-11{fill:url(#linear-gradient-3);}</style><linearGradient id="linear-gradient" x1="-249.66692" y1="591.97011" x2="-249.42187" y2="591.97011" gradientTransform="matrix(73.52734, 0, 0, -73.52734, 18367.62338, 43546.39532)" gradientUnits="userSpaceOnUse"><stop offset="0"/><stop offset="1" stop-color="#fff"/></linearGradient><clipPath id="clip-path"><polygon class="cls-2" points="10.28 21.912 25.299 21.912 28.298 18.914 13.283 18.907 10.28 21.912"/></clipPath><mask id="mask" x="10.28005" y="18.90725" width="18.01763" height="3.00502" maskUnits="userSpaceOnUse"><rect class="cls-1" x="10.28005" y="18.90725" width="18.01762" height="3.00502"/></mask><linearGradient id="linear-gradient-2" x1="-249.66692" y1="591.97011" x2="-249.42187" y2="591.97011" gradientTransform="matrix(73.52734, 0, 0, -73.52734, 18367.62531, 43546.39978)" gradientUnits="userSpaceOnUse"><stop offset="0" stop-color="#ed1c24"/><stop offset="1" stop-color="#ed1c24"/></linearGradient><clipPath id="clip-path-2"><polygon class="cls-2" points="10.28 21.912 10.28 29.421 13.287 26.413 13.287 18.907 10.28 21.912"/></clipPath><linearGradient id="linear-gradient-3" x1="-250.15305" y1="610.54108" x2="-249.90801" y2="610.54108" gradientTransform="matrix(18.56993, 0, 0, -18.56993, 4654.15136, 11361.87214)" gradientUnits="userSpaceOnUse"><stop offset="0" stop-color="#d71920"/><stop offset="1" stop-color="#b11116"/></linearGradient></defs><g id="Layer_2" data-name="Layer 2"><g id="Layer_1-2" data-name="Layer 1"><rect class="cls-3" width="91.49982" height="49.3124" rx="4.73839"/><polygon class="cls-4" points="13.283 18.907 13.283 18.907 10.28 21.912 10.28 29.421 17.789 29.421 17.789 30.923 25.299 30.923 26.801 29.421 32.809 29.421 32.809 29.422 35.814 26.417 35.814 18.907 13.283 18.907"/><g class="cls-5"><g class="cls-6"><rect class="cls-7" x="10.28006" y="18.90725" width="18.01762" height="3.00502"/></g></g><polygon class="cls-8" points="25.299 21.912 32.809 29.421 35.814 26.416 35.814 18.907 28.298 18.914 25.299 21.912"/><polygon class="cls-9" points="10.28 29.421 13.287 26.414 20.794 26.414 29.819 26.414 32.809 29.421 26.801 29.421 25.299 30.923 17.789 30.923 17.789 29.421 10.28 29.421"/><g class="cls-10"><rect class="cls-11" x="10.28006" y="18.90725" width="3.00674" height="10.51352"/></g><polygon class="cls-8" points="40.785 23.341 40.785 29.333 40.533 29.333 40.533 23.341 38.844 23.341 38.844 23.114 42.475 23.114 42.475 23.341 40.785 23.341"/><path class="cls-8" d="M46.81164,29.33388V23.50223c0-.27445.11787-.40212.35384-.38668h3.05893v.22765h-3.1616v2.74674h2.48135v.22667H47.06281v2.79207h3.1616v.2252Z"/><path class="cls-8" d="M57.97232,25.0714a1.94,1.94,0,0,1-.42075,1.22916,1.62431,1.62431,0,0,1-.57145.46975,1.90544,1.90544,0,0,1-.83978.21074l-.78955.03235,2.21768,2.3206h-.31831l-2.4125-2.55487.97529-.01666a3.29824,3.29824,0,0,0,.74764-.06641,1.60141,1.60141,0,0,0,.62978-.3291,1.85076,1.85076,0,0,0,.52979-1.32644,1.60106,1.60106,0,0,0-.74-1.44529,1.52014,1.52014,0,0,0-.65526-.21785,2.59064,2.59064,0,0,0-.41193-.02671c-.11076-.0049-.2769-.00759-.494-.00759H54.25053V29.334H53.9974V23.8888c.00318-.7251-.04436-.78342.77337-.77386h.64815a6.52383,6.52383,0,0,1,1.06473.06886,1.94161,1.94161,0,0,1,.58958.19358,1.75464,1.75464,0,0,1,.89909,1.65334Z"/><path class="cls-8" d="M65.72219,25.0714a1.931,1.931,0,0,1-.42027,1.22916,1.60386,1.60386,0,0,1-.57169.46926,1.89862,1.89862,0,0,1-.83929.21123l-.79.03235,2.21866,2.3206h-.3193l-2.413-2.55487.97677-.01666a3.30518,3.30518,0,0,0,.74714-.06641,1.63966,1.63966,0,0,0,.63149-.3291,1.85518,1.85518,0,0,0,.52907-1.32644,1.60473,1.60473,0,0,0-.74152-1.44529,1.50329,1.50329,0,0,0-.65526-.21785,2.58243,2.58243,0,0,0-.4107-.02671c-.11248-.0049-.27763-.00759-.4972-.00759H61.99991V29.334h-.25142V23.8888c.00024-.7251-.04582-.78342.77263-.77386h.64595a6.59648,6.59648,0,0,1,1.06939.06886,1.95483,1.95483,0,0,1,.58811.19358,1.7575,1.7575,0,0,1,.89762,1.65334Z"/><path class="cls-8" d="M73.47086,27.14928c0,.18942-.00613.34454-.01569.46167a2.37382,2.37382,0,0,1-.08455.5119,1.68111,1.68111,0,0,1-.6479.94172,1.9537,1.9537,0,0,1-2.311,0,1.69267,1.69267,0,0,1-.646-.94172,2.208,2.208,0,0,1-.0838-.5119c-.01078-.11713-.01715-.27225-.01715-.46167V23.11506h.25314V27.3686c0,.0713.00146.138.0071.19971a2.28166,2.28166,0,0,0,.04191.36193,1.77937,1.77937,0,0,0,.33595.71579,1.51165,1.51165,0,0,0,1.27768.56826,1.47822,1.47822,0,0,0,1.25023-.56826,1.73164,1.73164,0,0,0,.33719-.71579,1.95544,1.95544,0,0,0,.04288-.36193c.00588-.06175.00736-.12841.00736-.19971V23.11506h.25265Z"/><path class="cls-8" d="M80.99517,29.3387V28.28059h-.01593a2.04221,2.04221,0,0,1-1.969,1.1625,2.16867,2.16867,0,0,1-1.64451-.68,2.31391,2.31391,0,0,1,.01-3.09937,2.14684,2.14684,0,0,1,1.63448-.67486,2.25555,2.25555,0,0,1,1.28943.38326,1.70205,1.70205,0,0,1,.67952.80228h.01593q.35508-3.30042-2.77883-2.89793L78.20849,23.09q3.02879-.38522,3.01115,2.31447V29.3387Zm-.5511-3.56544a2.08112,2.08112,0,0,0-2.86021-.01568,1.92322,1.92322,0,0,0-.58468,1.458,2.00971,2.00971,0,0,0,.50431,1.3708,1.931,1.931,0,0,0,1.53007.6457,1.8839,1.8839,0,0,0,1.43328-.5989,2.09378,2.09378,0,0,0-.02277-2.85995"/><polygon class="cls-8" points="79.211 23.173 78.946 23.115 80.614 21.467 80.769 21.615 79.211 23.173"/><path class="cls-8" d="M40.42663,20.51532h-.20927v-.31366a.67469.67469,0,0,1-.62193.35606.8029.8029,0,0,1,0-1.60555.66819.66819,0,0,1,.62193.36169v-.3193h.20927Zm-1.41343-.75744a.59387.59387,0,0,0,.61065.60478.56871.56871,0,0,0,.54817-.37027.5796.5796,0,0,0,.051-.24014.54393.54393,0,0,0-.048-.24334.58665.58665,0,0,0-.55675-.36438.59621.59621,0,0,0-.605.61041Z"/><path class="cls-8" d="M47.50978,20.34019a.7786.7786,0,0,1-.22618.59914.85014.85014,0,0,1-.57659.23475.76983.76983,0,0,1-.75206-.49181h.24039a.58661.58661,0,0,0,.18085.2007.59989.59989,0,0,0,.33645.11027.58906.58906,0,0,0,.58787-.605v-.19506a.65717.65717,0,0,1-.61336.36463.80282.80282,0,0,1,0-1.60555.67314.67314,0,0,1,.6163.356v-.31366h.20633ZM46.102,19.755a.59116.59116,0,0,0,.61066.60772.583.583,0,0,0,.42662-.17521.637.637,0,0,0,.16983-.42957.65713.65713,0,0,0-.1387-.39869.55964.55964,0,0,0-.46338-.212.59149.59149,0,0,0-.605.60477Z"/><path class="cls-8" d="M53.16264,19.81442a.5788.5788,0,0,0,.5935.56238.56228.56228,0,0,0,.52293-.31366h.21761a.80559.80559,0,0,1-.308.37027.79494.79494,0,0,1-.43251.12423.78529.78529,0,0,1-.80278-.79983.799.799,0,1,1,1.59429.05661Zm1.17867-.16688a.59282.59282,0,0,0-1.176,0Zm-.0142-.88193h-.23746l-.33645-.23181-.33621.23181H53.1793l.49769-.3759h.15536Z"/><path class="cls-8" d="M59.99972,18.99461h.198c0,.08478,0,.16957-.00294.27127a.56961.56961,0,0,1,.56533-.31366.61319.61319,0,0,1,.63884.69814v.865H61.1926v-.82262c0-.32788-.147-.55111-.48887-.54548a.46138.46138,0,0,0-.49475.50872v.85938h-.20926Z"/><path class="cls-8" d="M68.43971,20.0009a.80854.80854,0,1,1,0-.48054H68.2248a.60323.60323,0,0,0-.98092-.20364.6245.6245,0,0,0-.17227.43839.591.591,0,0,0,.59914.60772.57344.57344,0,0,0,.5511-.36193Z"/><path class="cls-8" d="M73.89443,18.42352h.20927v.29112h-.20927Zm0,.57121h.20927v1.52076h-.20927Z"/><path class="cls-8" d="M81.19186,20.51532h-.20927v-.31366a.67468.67468,0,0,1-.62192.35606.8029.8029,0,0,1,0-1.60555.66819.66819,0,0,1,.62192.36169v-.3193h.20927Zm-1.41342-.75744a.59387.59387,0,0,0,.61065.60478.56871.56871,0,0,0,.54817-.37027.57959.57959,0,0,0,.051-.24014.54379.54379,0,0,0-.048-.24334.58664.58664,0,0,0-.55674-.36438.5962.5962,0,0,0-.605.61041Z"/></g></g></svg>