<svg xmlns="http://www.w3.org/2000/svg" viewBox="0 0 91.49982 49.3124"><defs><style>.cls-1{fill:#f4f4f5;}.cls-2{fill:#383838;}</style></defs><g id="Layer_2" data-name="Layer 2"><g id="Layer_1-2" data-name="Layer 1"><rect class="cls-1" width="91.49982" height="49.3124" rx="4.73839"/><path class="cls-2" d="M15.27738,25.6734V29.954a.61745.61745,0,0,0,.13316.43425,1.03532,1.03532,0,0,0,.47425.2392v.29528H11.81767v-.29528a1.05459,1.05459,0,0,0,.48347-.2392.57026.57026,0,0,0,.14233-.43425V25.6734l-4.186-5.69486a6.19537,6.19537,0,0,0-.851-.98718,1.39935,1.39935,0,0,0-.73856-.30818v-.29347h5.12259v.29347c-.426.06717-.63524.25759-.63524.56858a1.90889,1.90889,0,0,0,.38663.72678l2.33886,3.35067L16.285,19.97854a1.81525,1.81525,0,0,0,.391-.736.47067.47067,0,0,0-.17529-.36153.853.853,0,0,0-.462-.19783v-.29347H21.055v.29347a1.42854,1.42854,0,0,0-.74061.30818,6.075,6.075,0,0,0-.84666.98718Z"/><path class="cls-2" d="M30.19663,24.35691a2.96077,2.96077,0,0,1,1.73262,2.95635,3.54759,3.54759,0,0,1-1.0101,2.68844,3.01825,3.01825,0,0,1-1.18333.70182,5.3962,5.3962,0,0,1-1.66553.21521H21.055v-.2934a.749.749,0,0,0,.37967-.23915.72007.72007,0,0,0,.10326-.4305v-10.599a.59148.59148,0,0,0-.48293-.67144v-.29161h6.94817a5.84942,5.84942,0,0,1,1.608.17939,2.63,2.63,0,0,1,1.06833.62547,3.31417,3.31417,0,0,1,.91128,2.51388A2.81759,2.81759,0,0,1,30.19663,24.35691Zm-6.4144-.98237h3.92971a1.88612,1.88612,0,0,0,1.24678-.31915,1.48242,1.48242,0,0,0,.40182-1.13875,1.43582,1.43582,0,0,0-.38045-1.125,1.87686,1.87686,0,0,0-1.26815-.333H23.78223Zm0,5.4776h3.80068a2.55286,2.55286,0,0,0,1.52621-.35694,1.5888,1.5888,0,0,0,.53529-1.34474,1.61716,1.61716,0,0,0-.53529-1.35216,2.51163,2.51163,0,0,0-1.52621-.356H23.78223Z"/><path class="cls-2" d="M41.32052,19.78266a5.71048,5.71048,0,0,1,.94536-.07358,1.567,1.567,0,0,1,1.06984.317,1.02557,1.02557,0,0,1,.33408.79817,1.12316,1.12316,0,0,1-.29434.81512,1.581,1.581,0,0,1-1.16625.419,1.69467,1.69467,0,0,1-.39625-.034v1.5283h-.49244Zm.49244,1.83982a1.65064,1.65064,0,0,0,.40766.03963c.59434,0,.95663-.28871.95663-.81524,0-.50383-.35665-.74715-.90009-.74715a2.06475,2.06475,0,0,0-.4642.0396Z"/><path class="cls-2" d="M45.88828,19.78832a5.13127,5.13127,0,0,1,.94524-.07924,1.56091,1.56091,0,0,1,1.10392.31127.95012.95012,0,0,1,.30012.72461,1.00185,1.00185,0,0,1-.71906.97368v.01705a.95139.95139,0,0,1,.56059.76975,6.0539,6.0539,0,0,0,.29437,1.04726H47.864a4.93059,4.93059,0,0,1-.25474-.91139c-.1133-.52651-.31714-.72446-.7642-.74151h-.46432v1.6529h-.49243Zm.49243,1.73789h.50395c.52627,0,.86047-.28871.86047-.7246,0-.49253-.35677-.70755-.87753-.71331a2.023,2.023,0,0,0-.48689.04538Z"/><path class="cls-2" d="M51.13548,22.35272l-.39637,1.2h-.50949l1.29649-3.8153h.59447l1.302,3.8153h-.52652l-.40769-1.2Zm1.25111-.385L52.013,20.86955c-.085-.24908-.14165-.47549-.1983-.69625h-.0113c-.05665.22639-.11884.45845-.19231.69062l-.3738,1.10382Z"/><path class="cls-2" d="M58.12046,23.42832a2.44512,2.44512,0,0,1-1.00764.181,1.78288,1.78288,0,0,1-1.885-1.93032,1.89856,1.89856,0,0,1,1.9925-2.00392,2.04493,2.04493,0,0,1,.90586.16985l-.11885.40192a1.79342,1.79342,0,0,0-.77-.15859,1.41876,1.41876,0,0,0-1.48881,1.57381,1.3869,1.3869,0,0,0,1.46623,1.53406,1.97489,1.97489,0,0,0,.80383-.15847Z"/><path class="cls-2" d="M61.17708,20.15625H60.01649V19.7374h2.82489v.41885H61.67527V23.5527h-.49819Z"/><path class="cls-2" d="M65.3146,19.7374v3.8153h-.49243V19.7374Z"/><path class="cls-2" d="M70.39781,23.42832a2.44521,2.44521,0,0,1-1.00767.181,1.78289,1.78289,0,0,1-1.885-1.93032,1.89857,1.89857,0,0,1,1.99253-2.00392,2.045,2.045,0,0,1,.90585.16985l-.11884.40192a1.7935,1.7935,0,0,0-.77-.15859,1.41877,1.41877,0,0,0-1.48881,1.57381,1.3869,1.3869,0,0,0,1.46624,1.53406,1.97477,1.97477,0,0,0,.80382-.15847Z"/><path class="cls-2" d="M74.54684,21.764H73.06356v1.37547h1.653v.41321H72.57112V19.7374H74.6316v.41321h-1.568v1.20574h1.48328Z"/><path class="cls-2" d="M80.16163,19.7374v3.8153H79.6692V19.7374Z"/><path class="cls-2" d="M82.5107,22.9527a1.74475,1.74475,0,0,0,.883.249c.50394,0,.79831-.266.79831-.6509,0-.35677-.20385-.56036-.71906-.75857-.62257-.22075-1.00767-.54344-1.00767-1.08113a1.09856,1.09856,0,0,1,1.23406-1.036,1.73449,1.73449,0,0,1,.84369.18679l-.1359.40191a1.51978,1.51978,0,0,0-.7246-.18116c-.521,0-.71906.3114-.71906.57178,0,.35665.23217.53217.75868.73587.64536.24911.97356.5605.97356,1.12088,0,.58871-.43575,1.09817-1.33585,1.09817a1.97159,1.97159,0,0,1-.9738-.24345Z"/><path class="cls-2" d="M43.2961,27.89612H41.813V29.2716h1.653v.41321H41.32052v-3.8153H43.3811v.41321H41.813v1.20573H43.2961Z"/><path class="cls-2" d="M46.55069,29.68481l-1.2456-3.8153h.53227l.59425,1.87944c.16422.515.30588.97909.40767,1.42638h.01127c.10757-.44152.266-.92267.436-1.42086l.64535-1.885h.5263l-1.3642,3.8153Z"/><path class="cls-2" d="M52.40364,27.89612H50.92036V29.2716h1.653v.41321H50.42793v-3.8153h2.06045v.41321h-1.568v1.20573h1.48328Z"/><path class="cls-2" d="M54.76927,25.92043a5.13151,5.13151,0,0,1,.94526-.07925,1.56141,1.56141,0,0,1,1.10392.31118.95028.95028,0,0,1,.30012.72458,1.002,1.002,0,0,1-.71906.9738v.01706a.95077.95077,0,0,1,.56059.76974,6.05891,6.05891,0,0,0,.29437,1.04727H56.745a4.93349,4.93349,0,0,1-.25474-.9114c-.11332-.52651-.31715-.72458-.7642-.74163H55.2617v1.653h-.49243Zm.49243,1.73777h.504c.52628,0,.86048-.28859.86048-.72458,0-.49243-.35677-.70755-.87753-.71333a2.02925,2.02925,0,0,0-.48691.04538Z"/><path class="cls-2" d="M60.15814,29.68481V28.06586L58.9524,25.86951h.56036l.53781,1.05281c.14717.28882.26026.52076.3791.78677h.01153c.10755-.249.23769-.49795.38486-.78677l.54909-1.05281h.56038l-1.27921,2.1906v1.6247Z"/><path class="cls-2" d="M64.84474,26.28824h-1.1606v-.41873H66.509v.41873H65.34293v3.39657h-.49819Z"/><path class="cls-2" d="M68.98247,25.86951v1.59637h1.84558V25.86951h.49818v3.8153h-.49818V27.89612H68.98247v1.78869H68.49v-3.8153Z"/><path class="cls-2" d="M74.22969,25.86951v3.8153h-.49243v-3.8153Z"/><path class="cls-2" d="M76.64668,29.68481v-3.8153h.53781l1.22279,1.93034a10.79887,10.79887,0,0,1,.685,1.2396l.01129-.00554c-.04537-.5097-.05665-.9738-.05665-1.568V25.86951H79.511v3.8153h-.498L77.80152,27.749a12.13487,12.13487,0,0,1-.7133-1.27392l-.01705.00575c.02832.48116.03962.93973.03962,1.57357v1.63046Z"/><path class="cls-2" d="M84.83189,29.51507a3.55781,3.55781,0,0,1-1.1719.20936,1.7917,1.7917,0,0,1-1.95866-1.92458,1.91351,1.91351,0,0,1,2.06624-1.96994,2.36034,2.36034,0,0,1,.951.17526l-.11884.40215a1.975,1.975,0,0,0-.84345-.16423,1.427,1.427,0,0,0-1.53416,1.534,1.39847,1.39847,0,0,0,1.47175,1.5397,1.60533,1.60533,0,0,0,.65666-.10179V28.07716H83.575V27.681h1.25687Z"/><line class="cls-2" x1="36.29668" y1="19.67948" x2="36.29668" y2="29.88436"/></g></g></svg>