<svg xmlns="http://www.w3.org/2000/svg" xmlns:xlink="http://www.w3.org/1999/xlink" viewBox="0 0 1289.10258 694.3467"><defs><style>.cls-1{fill:#e2e9fb;}.cls-2{isolation:isolate;}.cls-3{clip-path:url(#clip-path);}.cls-4{fill:#fff;}.cls-5{fill:#d3ddf8;}.cls-6{fill:#b3c0ec;}.cls-7{fill:#6f8fe4;}.cls-8{fill:#02126a;}.cls-9{fill:#1d3599;}.cls-10{fill:#2647c8;}.cls-11{fill:#151618;}.cls-12{opacity:0.44;}.cls-13{fill:#4900bc;}.cls-14{fill:url(#_ÂÁ_Ï_ÌÌ_È_ËÂÌÚ_55);}.cls-15{fill:#faf9fc;}.cls-16{fill:url(#_ÂÁ_Ï_ÌÌ_È_ËÂÌÚ_140);}.cls-17{fill:#fbbcbe;}.cls-18{fill:#0c1540;}.cls-19{fill:url(#_ÂÁ_Ï_ÌÌ_È_ËÂÌÚ_140-2);}.cls-20{fill:url(#_ÂÁ_Ï_ÌÌ_È_ËÂÌÚ_140-3);}.cls-21{fill:#da91a7;}.cls-22{fill:url(#_ÂÁ_Ï_ÌÌ_È_ËÂÌÚ_140-4);}.cls-23{mix-blend-mode:multiply;fill:url(#_ÂÁ_Ï_ÌÌ_È_ËÂÌÚ_142);}</style><clipPath id="clip-path" transform="translate(0 31.70049)"><path class="cls-1" d="M148.0005,662.62671s-133.2051-109.833,6.3408-215.6494c139.5464-105.8154-9.9707-166.8633,82.0694-264,92.04-97.1367,191.4365,34.9492,253.4199-56.1699,79.6597-117.1036,284.72019-193.4815,380.936-43.9151,79.66019,123.8291,255.11619,20.7686,255.11619,251.9473,0,164.3281,208.544,121.8398,87.6983,327.7871Z"/></clipPath><linearGradient id="_ÂÁ_Ï_ÌÌ_È_ËÂÌÚ_55" x1="101.41639" y1="590.11528" x2="99.3102" y2="586.61656" gradientUnits="userSpaceOnUse"><stop offset="0" stop-color="#dbebff"/><stop offset="0.52739" stop-color="#ddecff"/><stop offset="0.73665" stop-color="#e4f0ff"/><stop offset="0.88895" stop-color="#f0f7ff"/><stop offset="1" stop-color="#fff"/></linearGradient><linearGradient id="_ÂÁ_Ï_ÌÌ_È_ËÂÌÚ_140" x1="135.07876" y1="615.50595" x2="81.72592" y2="615.50595" gradientUnits="userSpaceOnUse"><stop offset="0" stop-color="#ffd000"/><stop offset="1" stop-color="#ff7300"/></linearGradient><linearGradient id="_ÂÁ_Ï_ÌÌ_È_ËÂÌÚ_140-2" x1="666.26833" y1="607.75418" x2="625.26173" y2="528.44906" xlink:href="#_ÂÁ_Ï_ÌÌ_È_ËÂÌÚ_140"/><linearGradient id="_ÂÁ_Ï_ÌÌ_È_ËÂÌÚ_140-3" x1="573.3423" y1="551.21288" x2="640.99419" y2="551.21288" xlink:href="#_ÂÁ_Ï_ÌÌ_È_ËÂÌÚ_140"/><linearGradient id="_ÂÁ_Ï_ÌÌ_È_ËÂÌÚ_140-4" x1="450.54559" y1="455.54883" x2="642.7842" y2="455.54883" xlink:href="#_ÂÁ_Ï_ÌÌ_È_ËÂÌÚ_140"/><linearGradient id="_ÂÁ_Ï_ÌÌ_È_ËÂÌÚ_142" x1="465.81369" y1="454.61362" x2="547.92361" y2="478.98542" gradientUnits="userSpaceOnUse"><stop offset="0" stop-color="#fff"/><stop offset="1" stop-color="#ff7300"/></linearGradient></defs><g class="cls-2"><g id="Layer_2" data-name="Layer 2"><g id="Layer_1-2" data-name="Layer 1"><path class="cls-1" d="M148.0005,662.62671s-133.2051-109.833,6.3408-215.6494c139.5464-105.8154-9.9707-166.8633,82.0694-264,92.04-97.1367,191.4365,34.9492,253.4199-56.1699,79.6597-117.1036,284.72019-193.4815,380.936-43.9151,79.66019,123.8291,255.11619,20.7686,255.11619,251.9473,0,164.3281,208.544,121.8398,87.6983,327.7871Z" transform="translate(0 31.70049)"/><g class="cls-3"><rect class="cls-4" x="538.4424" y="325.4864" width="1.5" height="197.6172"/><rect class="cls-4" x="514.2725" y="325.4864" width="1.5" height="197.6172"/><rect class="cls-4" x="490.1021" y="325.4864" width="1.5" height="197.6172"/><rect class="cls-4" x="465.9317" y="325.4864" width="1.5" height="197.6172"/><rect class="cls-4" x="441.7617" y="325.4864" width="1.5" height="197.6172"/><rect class="cls-4" x="417.5913" y="325.4864" width="1.5" height="197.6172"/><rect class="cls-4" x="393.4214" y="325.4864" width="1.5" height="197.6172"/><rect class="cls-4" x="369.251" y="325.4864" width="1.5" height="197.6172"/><rect class="cls-4" x="345.08059" y="325.4864" width="1.5" height="197.6172"/><rect class="cls-4" x="320.9107" y="325.4864" width="1.5" height="197.6172"/><rect class="cls-4" x="296.7403" y="325.4864" width="1.5" height="197.6172"/><rect class="cls-4" x="272.5703" y="325.4864" width="1.5" height="197.6172"/><rect class="cls-4" x="248.3999" y="325.4864" width="1.5" height="197.6172"/><rect class="cls-4" x="224.23" y="325.4864" width="1.5" height="197.6172"/><rect class="cls-4" x="200.0596" y="325.4864" width="1.5" height="197.6172"/><rect class="cls-4" x="175.8892" y="325.4864" width="1.5" height="197.6172"/><rect class="cls-4" x="151.7193" y="325.4864" width="1.5" height="197.6172"/><rect class="cls-4" x="152.4693" y="496.9073" width="386.7231" height="1.5"/><rect class="cls-4" x="152.4693" y="472.7364" width="386.7231" height="1.5"/><rect class="cls-4" x="152.4693" y="448.5665" width="386.7231" height="1.5"/><rect class="cls-4" x="152.4693" y="424.3965" width="386.7231" height="1.5"/><rect class="cls-4" x="152.4693" y="400.2256" width="386.7231" height="1.5"/><rect class="cls-4" x="152.4693" y="376.0557" width="386.7231" height="1.5"/><rect class="cls-4" x="152.4693" y="351.8858" width="386.7231" height="1.5"/><rect class="cls-5" x="712.85349" width="14.919" height="694.3272"/><rect class="cls-5" x="856.36139" width="14.91791" height="694.3272"/><rect class="cls-5" x="999.86818" width="14.918" height="694.3272"/><rect class="cls-5" x="917.17189" y="107.03591" width="14.0351" height="416.85349" transform="translate(1239.6521 -577.02629) rotate(90)"/><rect class="cls-5" x="869.37399" y="-137.10179" width="109.6309" height="416.85349" transform="translate(995.5144 -821.16399) rotate(90)"/><rect class="cls-5" x="219.96855" y="340.47416" width="186.0576" height="458.2475" transform="translate(882.59526 288.30105) rotate(90)"/><rect class="cls-6" x="298.3643" y="564.69211" width="189.6065" height="6.2627" transform="translate(960.99101 206.3564) rotate(90)"/><rect class="cls-6" x="135.5557" y="564.69211" width="189.6065" height="6.2627" transform="translate(798.18241 369.165) rotate(90)"/><rect class="cls-6" x="310.8963" y="236.01761" width="12.3369" height="468.76609" transform="translate(787.46541 185.0364) rotate(90)"/><rect class="cls-5" x="192.1023" y="-36.90379" width="241.7901" height="458.2475" transform="translate(505.21731 -89.0769) rotate(90)"/><rect class="cls-6" x="298.3643" y="215.18041" width="189.6065" height="6.2627" transform="translate(611.47931 -143.1553) rotate(90)"/><rect class="cls-6" x="135.5557" y="215.18041" width="189.6065" height="6.2627" transform="translate(448.67071 19.6533) rotate(90)"/><rect class="cls-5" x="581.76709" y="61.0166" width="2" height="116.5547"/><path class="cls-5" d="M592.98,209.19021h-20.4258v-53.1065a10.21332,10.21332,0,0,1,10.2129-10.2129h0a10.21357,10.21357,0,0,1,10.2129,10.2129Z" transform="translate(0 31.70049)"/><rect class="cls-5" x="662.24809" y="34.2081" width="2" height="176.5556"/><path class="cls-5" d="M673.46,242.38161h-20.4248v-53.1065a10.21219,10.21219,0,0,1,10.2119-10.2119h0a10.21247,10.21247,0,0,1,10.2129,10.2119Z" transform="translate(0 31.70049)"/><rect class="cls-5" x="623.97759" y="13.0879" width="2" height="116.5557"/><path class="cls-5" d="M635.19,161.26241h-20.4253V108.156a10.21262,10.21262,0,0,1,10.2129-10.2129h0A10.21257,10.21257,0,0,1,635.19,108.156Z" transform="translate(0 31.70049)"/><rect class="cls-7" x="656.46289" y="563.2461" width="464.76759" height="102.0987"/><path class="cls-7" d="M608.01419,491.50661v133.2685c0,4.8985,4.6933,8.8692,10.479,8.8692h101.1377c5.789,0,10.4873-3.9707,10.4873-8.8692V468.71071h-99.3076A22.79623,22.79623,0,0,0,608.01419,491.50661Z" transform="translate(0 31.70049)"/><path class="cls-6" d="M931.28619,357.12671q-.816-.04695-1.6465-.0469h-167.794l-22.3486,194.461H907.293c13.27731,0,24.0478-9.1065,24.0478-20.3448l21.37309-147.0459C954.67578,370.656,944.90038,357.906,931.28619,357.12671Z" transform="translate(0 31.70049)"/><path class="cls-5" d="M889.89849,357.12671q-.816-.04695-1.6465-.0469H741.1963c-13.28321,0-24.04981,9.1065-24.04981,20.3467L694.79789,531.196c0,11.2383,10.7695,20.3448,24.0478,20.3448H865.9033c13.28619,0,24.04689-9.1065,24.04689-20.3448l21.375-147.0478C913.28709,370.654,903.51269,357.905,889.89849,357.12671Z" transform="translate(0 31.70049)"/><path class="cls-4" d="M878.53619,521.16191c-86.7227-12.2178-211.5127,0-211.5127,0-6.49219,1.6601-8.4795,3.4775-10.5606,7.8144v65.9512a2.48719,2.48719,0,0,0,2.7432,2.7529h219.3301c5.832,0,10.5615-3.4961,10.5615-7.8154v-60.8887C889.09769,526.06711,884.20319,522.73221,878.53619,521.16191Z" transform="translate(0 31.70049)"/><path class="cls-5" d="M873.918,529.65111H656.46289v65.2764a2.48719,2.48719,0,0,0,2.7432,2.7529h219.3301c5.832,0,10.5615-3.4961,10.5615-7.8154v-45.0342A15.17934,15.17934,0,0,0,873.918,529.65111Z" transform="translate(0 31.70049)"/><polygon class="cls-7" points="624.791 694.327 634.989 694.327 652.74 665.45 636.94 665.45 624.791 694.327"/><polygon class="cls-7" points="720.746 694.327 730.937 694.327 748.691 665.45 732.895 665.45 720.746 694.327"/><path class="cls-6" d="M1163.18258,357.115c-.4677-.0235-149.8632-.0352-149.8632-.0352a21.69375,21.69375,0,0,0-21.5518,19.2168L974.4063,527.37081a21.69394,21.69394,0,0,0,21.55168,24.17h143.4629c12.8018,0,23.27442-8.4668,24.0069-19.1485.0537-.7949.0976-1.5908.2129-2.3799l21.207-145.915C1186.8213,370.52121,1176.88478,357.78591,1163.18258,357.115Z" transform="translate(0 31.70049)"/><path class="cls-5" d="M1122.0283,357.12671c-.54392-.0313-1.09372-.0469-1.64642-.0469H973.32718c-13.2813,0-24.0508,9.1065-24.0508,20.3467L926.92579,531.196c0,11.2383,10.76951,20.3448,24.05079,20.3448H1098.0323c13.28708,0,24.04778-9.1065,24.04778-20.3448l21.3721-147.0517C1145.41308,370.65211,1135.63968,357.905,1122.0283,357.12671Z" transform="translate(0 31.70049)"/><path class="cls-4" d="M1113.26168,414.46651c-11.8232,5.5352-14.2783-.1621-54.39938,1.5996-23.96772,1.0518-37.25682-2.9843-44.04392-6.3662a4.03859,4.03859,0,0,0-5.957,3.3682c.0078,6.3164-.2588,16.6797-1.4893,31.4277-4.9951,59.8575-25.54878,60.1983-14.2461,65.5381,11.3291,5.3526,139.6484,15.9541,124.3809,3.0244-15.2198-12.8906,2.4023-60.9795,6.64842-79.8681C1127.67578,417.53,1123.44338,409.70091,1113.26168,414.46651Z" transform="translate(0 31.70049)"/><path class="cls-1" d="M1044.29688,428.66581c-41.68358,3.8027-83.5547.9736-100.0674-.4678a6.56931,6.56931,0,0,0-7.29979,6.2402c-.6592,24.5684-10.4658,60.0235-14.8945,74.8819a6.70671,6.70671,0,0,0,5.5556,8.3388c49.73639,8.4326,88.01859,7.2295,102.74029,6.2588a6.46113,6.46113,0,0,0,6.2549-6.3965c-.3496-25.9404,9.9404-63.0879,15.2304-80.4062C1053.18848,432.62281,1049.2403,428.21461,1044.29688,428.66581Z" transform="translate(0 31.70049)"/><path class="cls-4" d="M1110.666,521.16191c-86.7255-12.2178-211.51459,0-211.51459,0-6.4922,1.6601-8.4746,3.4775-10.5606,7.8144V589.865s5.3838,7.8154,8.4073,7.8154H1110.666c5.8291,0,10.5645-3.4961,10.5645-7.8154v-60.8887C1121.23048,526.06711,1116.33108,522.73221,1110.666,521.16191Z" transform="translate(0 31.70049)"/><path class="cls-5" d="M888.59079,544.76051v44.3408a8.50117,8.50117,0,0,0,8.2129,8.5781c.0645.001.1289.001.1944.001H1110.666c5.8291,0,10.5645-3.4961,10.5645-7.8154v-60.2139H903.70019A15.10939,15.10939,0,0,0,888.59079,544.76051Z" transform="translate(0 31.70049)"/><polygon class="cls-7" points="1072.287 665.45 1090.041 694.327 1100.232 694.327 1088.086 665.45 1072.287 665.45"/><polygon class="cls-7" points="1153.534 665.45 1171.288 694.327 1181.483 694.327 1169.331 665.45 1153.534 665.45"/><path class="cls-7" d="M1173.791,468.71071h-79.9238a21.09024,21.09024,0,0,0-21.0898,21.0908v134.9736c0,4.8985,4.6982,8.8692,10.4824,8.8692H1184.4043c5.78618,0,10.47658-3.9707,10.47658-8.8692V489.80151A21.09026,21.09026,0,0,0,1173.791,468.71071Z" transform="translate(0 31.70049)"/><path class="cls-4" d="M1099.94238,468.71071h-5.8769a21.28835,21.28835,0,0,0-21.2881,21.2881v113.2998H656.46189v-111.792a22.7957,22.7957,0,0,0-22.7954-22.7959h-2.8559a22.79645,22.79645,0,0,0-22.7964,22.7969v133.2685c0,4.8975,4.6933,8.8682,10.479,8.8682h487.708a15.0295,15.0295,0,0,0,15.0293-15.0293V489.99881A21.28841,21.28841,0,0,0,1099.94238,468.71071Z" transform="translate(0 31.70049)"/></g><rect class="cls-8" x="892.33689" y="463.6602" width="6.6182" height="230.6865"/><polygon class="cls-8" points="512.513 694.347 519.132 694.347 519.132 576.999 519.132 463.66 512.513 463.66 512.513 694.347"/><rect class="cls-9" x="488.229" y="489.8868" width="40.687" height="87.1123"/><rect class="cls-10" x="824.99509" y="447.9922" width="110.7041" height="10.0293"/><rect class="cls-8" x="800.7393" y="458.0215" width="110.706" height="5.6328"/><polygon class="cls-4" points="461.77 500.649 393.614 500.649 389.266 495.336 372.925 495.336 372.925 572.407 482.459 572.407 482.459 495.336 466.117 495.336 461.77 500.649"/><rect class="cls-7" x="318.3867" y="447.9922" width="533.64849" height="10.0293"/><rect class="cls-9" x="342.64749" y="458.0215" width="458.09181" height="5.6328"/><rect class="cls-9" x="776.2793" y="463.6602" width="6.61819" height="230.6865"/><path class="cls-9" d="M488.229,458.18631v1.8994l.0464,8.8623c2.7676,0,6.5552-2.5596,6.5552-7.7305v-29.2637H488.229Z" transform="translate(0 31.70049)"/><path class="cls-8" d="M528.8101,468.93921c2.7598-.0391,6.4878-2.5918,6.4878-7.7217v-29.2637h-6.4878Z" transform="translate(0 31.70049)"/><path class="cls-7" d="M367.1558,545.29861H488.229v-87.1123H367.1558Zm5.7695-81.6631H482.4595v76.2139H372.9253Z" transform="translate(0 31.70049)"/><polygon class="cls-8" points="393.614 500.649 461.77 500.649 466.117 495.336 389.266 495.336 393.614 500.649"/><polygon class="cls-8" points="393.614 530.53 461.77 530.53 466.117 525.216 389.266 525.216 393.614 530.53"/><polygon class="cls-8" points="393.614 553.698 461.77 553.698 466.117 548.386 389.266 548.386 393.614 553.698"/><polygon class="cls-9" points="360.49 694.347 367.108 694.347 367.108 576.999 367.108 463.66 360.49 463.66 360.49 694.347"/><polygon class="cls-11" points="752.692 439.486 717.376 439.486 717.376 448.139 777.958 448.139 752.692 439.486"/><rect class="cls-11" x="743.74609" y="413.4737" width="8.9463" height="26.5957"/><polygon class="cls-8" points="746.777 439.486 687.976 440.069 687.976 413.474 746.777 413.474 746.777 439.486"/><rect class="cls-11" x="687.97559" y="413.4737" width="61.2598" height="5.6513"/><path class="cls-10" d="M844.4453,234.80741H834.34179v146.9658H844.4453a.8409.8409,0,0,0,.84089-.8408V235.64821A.84019.84019,0,0,0,844.4453,234.80741Z" transform="translate(0 31.70049)"/><path class="cls-7" d="M595.4141,266.5079H839.33939a.84029.84029,0,0,1,.84029.84029V412.6329a.8408.8408,0,0,1-.8408.8408H595.4141a.8408.8408,0,0,1-.8408-.8408V267.3487A.8408.8408,0,0,1,595.4141,266.5079Z"/><rect class="cls-8" x="651.33404" y="186.04667" width="132.0849" height="237.60639" transform="translate(1022.22635 -380.82614) rotate(90)"/><rect class="cls-10" x="610.24609" y="280.8184" width="114.2617" height="39.3193"/><path class="cls-1" d="M721.80759,285.93721H612.94579v-34.3193h108.8618Zm-107.8618-1h106.8618v-32.3193H613.94579Z" transform="translate(0 31.70049)"/><rect class="cls-1" x="610.93131" y="268.27781" width="112.89086" height="0.99954" transform="translate(-49.59097 240.55811) rotate(-17.15915)"/><rect class="cls-1" x="666.87697" y="212.33216" width="0.99954" height="112.89086" transform="translate(213.59847 858.79554) rotate(-72.83365)"/><rect class="cls-10" x="712.08009" y="329.3165" width="53.5645" height="65.3613"/><path class="cls-1" d="M763.35549,360.54081h-48.9873v-60.4883h48.9873Zm-47.9873-1h46.9873v-58.4883h-46.9873Z" transform="translate(0 31.70049)"/><polygon class="cls-1" points="715.258 392.055 714.478 391.428 762.466 331.94 763.245 332.566 715.258 392.055"/><polygon class="cls-1" points="762.466 392.055 714.478 332.566 715.258 331.94 763.245 391.428 762.466 392.055"/><rect class="cls-10" x="772.77639" y="329.3165" width="53.5654" height="65.3613"/><path class="cls-1" d="M824.05279,360.54081h-48.9873v-60.4883h48.9873Zm-47.9873-1h46.9873v-58.4883h-46.9873Z" transform="translate(0 31.70049)"/><polygon class="cls-1" points="775.955 392.055 775.176 391.428 823.163 331.94 823.942 332.566 775.955 392.055"/><polygon class="cls-1" points="823.163 392.055 775.176 332.566 775.955 331.94 823.942 391.428 823.163 392.055"/><rect class="cls-10" x="733.74609" y="283.3799" width="41.1641" height="4"/><rect class="cls-10" x="733.74609" y="291.21" width="41.1641" height="4"/><rect class="cls-10" x="733.74609" y="299.0401" width="41.1641" height="4"/><rect class="cls-10" x="733.74609" y="306.8692" width="41.1641" height="4"/><rect class="cls-10" x="733.74609" y="314.6993" width="41.1641" height="4"/><rect class="cls-10" x="608.80959" y="333.21" width="92.59571" height="4"/><rect class="cls-10" x="608.80959" y="341.0401" width="92.59571" height="4"/><rect class="cls-10" x="608.80959" y="348.8692" width="92.59571" height="4"/><rect class="cls-10" x="608.80959" y="356.6993" width="92.59571" height="4"/><rect class="cls-10" x="608.80959" y="364.5293" width="92.59571" height="4"/><rect class="cls-10" x="608.80959" y="377.1504" width="92.59571" height="4"/><rect class="cls-10" x="608.80959" y="384.9805" width="92.59571" height="4"/><rect class="cls-10" x="785.17679" y="283.3799" width="41.165" height="4"/><rect class="cls-10" x="785.17679" y="291.21" width="41.165" height="4"/><rect class="cls-10" x="785.17679" y="299.0401" width="41.165" height="4"/><rect class="cls-10" x="785.17679" y="306.8692" width="41.165" height="4"/><rect class="cls-10" x="785.17679" y="314.6993" width="41.165" height="4"/><path class="cls-8" d="M687.97559,407.78591s-3.251,4.6386-32.8682,4.6386v4.0137H717.376v-4.0351s25.7949-.46,29.4014-4.6172Z" transform="translate(0 31.70049)"/><path class="cls-8" d="M137.3584,439.11791s-39.4526,13.2539-34.0849,58.7383c5.3691,45.4863-2.3619,100.9101-2.3619,100.9101h22.4903s40.0625-54.0097,10.5425-94.4775C104.4239,463.81811,137.3584,439.11791,137.3584,439.11791Z" transform="translate(0 31.70049)"/><path class="cls-7" d="M134.2339,441.95191c-7.1777,5.9258-28.063,27.4609-5.5561,63.1123,26.7402,42.3574-16.8521,93.5605-16.8521,93.5605l-10.7974-.7265c-.0727.5508-.1167.8681-.1167.8681h22.4903s40.0625-54.0097,10.5425-94.4775C110.2525,471.80741,126.7813,449.49781,134.2339,441.95191Z" transform="translate(0 31.70049)"/><g class="cls-12"><path class="cls-13" d="M135.7681,440.47341c.9726-.8867,1.5903-1.3555,1.5903-1.3555a48.11489,48.11489,0,0,0-8.3594,4.0889A49.50241,49.50241,0,0,1,135.7681,440.47341Z" transform="translate(0 31.70049)"/></g><path class="cls-9" d="M94.1836,548.46261c2.1079-40.3652.4785-45.4091-15.2124-58.7392-15.6909-13.3291-37.8037-35.2422-37.8037-35.2422,15.0615,29.8203,14.7598,43.375,17.5938,65.3135,2.1982,17.0205,27.7641,50.9902,39.123,65.375C95.3706,579.33671,93.1358,568.50361,94.1836,548.46261Z" transform="translate(0 31.70049)"/><path class="cls-14" d="M103.2735,591.86111s-2.105-2.5332-5.3892-6.6914C100.4346,591.08761,103.2735,591.86111,103.2735,591.86111Z" transform="translate(0 31.70049)"/><path class="cls-8" d="M86.5528,529.68631c-7.8321,33.5351,8.8222,56.0693,8.8222,56.0693h16.4204c-.0576-11.5566.773-22.6426,6.2149-33.8525a12.07573,12.07573,0,0,1,1.001-1.6651c-2.3164-1.084-4.8907-2.1806-7.7583-3.2812C80.9297,535.30931,94.3848,496.15011,86.5528,529.68631Z" transform="translate(0 31.70049)"/><path class="cls-9" d="M129.1245,538.12081c-16.6679,8.4346-11.8481,44.5821-11.8481,44.5821l15.6641,5.6211s-2.8121-16.4659,7.8315-29.3184c10.6436-12.8516,17.6719-7.9248,17.6719-7.9248S145.7925,529.68631,129.1245,538.12081Z" transform="translate(0 31.70049)"/><path class="cls-9" d="M49.2002,521.05151c-27.9863,0-43.6377,16.8662-43.6377,16.8662s10.8941-5.5342,30.3838-4.8174c19.4883.7158,18.0737,17.2705,33.7378,32.7334,15.6636,15.4619,28.7168,17.6709,28.7168,17.6709s-20.7461-30.0049-35.9463-50.4043C59.7788,529.50951,62.3863,521.05151,49.2002,521.05151Z" transform="translate(0 31.70049)"/><path class="cls-15" d="M.1407,543.68041a2.50835,2.50835,0,0,0-.1407.4648S.044,543.97631.1407,543.68041Z" transform="translate(0 31.70049)"/><path class="cls-7" d="M71.8931,539.12471c-5.2217-7.0283.2007-24.2988-33.1353-20.2822-30.4472,3.667-37.6045,21.7334-38.6171,24.8379.7695-2.0049,5.6406-10.165,35.0024-16.8057,33.7373-7.6308,15.8647,9.8409,31.1269,20.8858,15.2623,11.0449,27.7129,31.7275,27.7129,31.7275s8.6353,14.459,6.6255,2.4102C98.6001,569.85031,77.1143,546.154,71.8931,539.12471Z" transform="translate(0 31.70049)"/><path class="cls-7" d="M175.313,554.18631c-15.2622-31.127-33.7168-29.1006-45.9878-22.2911-17.4106,9.6622-14.5522,50.003-14.5522,50.003l2.5034.8047s.4014-7.8321,1.7349-21.2871c1.3315-13.4551,7.9028-32.5567,29.1909-6.0245,21.29,26.5303,51.4096,31.3018,51.4096,31.3018S190.5747,585.31321,175.313,554.18631Z" transform="translate(0 31.70049)"/><path class="cls-7" d="M134.9575,515.43631c-4.7954-3.5186-9.6635-2.9161-13.4233-1.3506a16.06272,16.06272,0,0,1-14.4829-1.3242c-16.0488-9.711-17.2778,3.6396-17.2778,3.6396l.4331,3.6143a.1786.1786,0,0,1,.0239.1191c1.1567,6.7002,4.9165,20.6289,21.0137,26.8223,2.8672,1.1084,28.122,12.0488,28.122,12.0488C135.9449,545.14921,144.7886,522.66581,134.9575,515.43631Z" transform="translate(0 31.70049)"/><path class="cls-10" d="M92.7364,662.62671h26.7905a17.83137,17.83137,0,0,0,17.8315-17.8311v-65.5087H74.9053v65.5087A17.831,17.831,0,0,0,92.7364,662.62671Z" transform="translate(0 31.70049)"/><rect class="cls-16" x="68.8155" y="610.9874" width="74.6323" height="9.0371"/><rect class="cls-5" x="1254.76658" y="231.5293" width="3.0645" height="62.2979"/><rect class="cls-5" x="1223.71978" y="222.46" width="4.9033" height="471.8672"/><polygon class="cls-5" points="1202.879 160.551 1163.24 235.332 1289.103 235.332 1249.464 160.551 1202.879 160.551"/><path class="cls-5" d="M1256.29888,256.50951a5.6172,5.6172,0,1,0,5.6171,5.6172A5.61688,5.61688,0,0,0,1256.29888,256.50951Z" transform="translate(0 31.70049)"/><path class="cls-9" d="M730.58109,416.29171a20.849,20.849,0,0,0-40.4795,0Z" transform="translate(0 31.70049)"/><path class="cls-17" d="M720.35939,404.60721c-11.03809,0-15.7236,10.1425-24.9102,6.1201-9.1865-4.0235-13.4492-3.8125-13.0146-11.4629.4355-7.6504,6.6123-7.0381,19.126-7.0381C713.77349,392.22631,736.75,404.60721,720.35939,404.60721Z" transform="translate(0 31.70049)"/><path class="cls-17" d="M602.18409,645.92941c-22.5459,0-7.2661-27.1836-2.2817-41.4638l-21.4434-5.044c-5.7432,14.3037-1.2475,28.6094-12.7895,47.541-8.2066,13.46,1.4257,15.6211,1.4257,15.6211h53.9805S621.07569,645.92941,602.18409,645.92941Z" transform="translate(0 31.70049)"/><path class="cls-18" d="M602.18409,645.92941c-6.40379,0-9.7505-2.1972-11.15379-5.664-4.17381-.8301-4.002,1.6679-6.87651,3.7851-8.5039,6.2627-17.2236.8438-18.4843,2.9121-8.2066,13.46,1.4257,15.6211,1.4257,15.6211h53.9805S621.07569,645.92941,602.18409,645.92941Z" transform="translate(0 31.70049)"/><path class="cls-17" d="M708.31059,643.91971c-18.1221-5.6797-30.7588-33.3164-37.07129-48.125l-21.15331,8.6054c4.8115,7.0088,16.7011,18.3096,19.0566,42.5625,1.6748,17.2432,6.3213,15.6211,6.3213,15.6211h58.6279S726.43259,649.60031,708.31059,643.91971Z" transform="translate(0 31.70049)"/><path class="cls-18" d="M708.31059,643.91971c-5.4707-1.7149-10.4375-5.4375-14.8848-10.1963-1.3369-1.4688-2.7832,4.8388-4.3281,6.8994-3.1006,4.1348-16.3438,5.8672-20.3447,3.0332.1992,1.1953.2802,2.1836.3896,3.3066,1.6748,17.2432,6.3213,15.6211,6.3213,15.6211h58.6279S726.43259,649.60031,708.31059,643.91971Z" transform="translate(0 31.70049)"/><polygon class="cls-6" points="527.276 528.478 519.761 528.478 545.076 694.324 552.591 694.324 527.276 528.478"/><polygon class="cls-6" points="615.68 528.478 608.165 528.478 633.479 694.324 640.994 694.324 615.68 528.478"/><path class="cls-19" d="M622.54539,468.948s47.98691,123.5976,54.5376,137.0117c0,0-9.3291,10.5684-21.9756,10.9375,0,0-70.4663-112.7969-77.0366-125.4658C571.50049,478.76241,622.54539,468.948,622.54539,468.948Z" transform="translate(0 31.70049)"/><path class="cls-20" d="M640.99419,486.98611s-39.7002,115.6074-44.1831,129.8466c0,0-14.0415,1.2432-23.46879-7.1943,0,0,14.41939-101.5557,18.37449-115.2676C595.67239,480.65891,640.99419,486.98611,640.99419,486.98611Z" transform="translate(0 31.70049)"/><path class="cls-17" d="M550.77249,277.93631s-7.55709.9629-8.54589,6.5009c-.9893,5.5372,2.271,10.835,2.271,10.835s-16.10449,4.2578-30.47609-1.2803c0,0,7.2852-14.3584,7.417-29.6523C521.5703,249.04471,550.77249,277.93631,550.77249,277.93631Z" transform="translate(0 31.70049)"/><path class="cls-21" d="M534.6533,288.10031c.0845-7.207,5.8692-12.5176,12.57039-13.5166-7.78469-7.1299-25.68169-22.2109-25.78519-10.2451-.1318,15.2949-7.417,29.6533-7.417,29.6533a49.30467,49.30467,0,0,0,20.3521,2.7325C534.4434,293.84941,534.6201,290.97731,534.6533,288.10031Z" transform="translate(0 31.70049)"/><path class="cls-17" d="M568.65039,232.35621s1.56591,10.1406.79691,18.457c-.76911,8.3174,2.31839,19.3399-5.68261,28.7393s-26.29839-1.0674-30.52-12.4395c-4.2217-11.372-.5054-20.2988,5.3808-25.5215C544.51169,236.36991,568.65039,232.35621,568.65039,232.35621Z" transform="translate(0 31.70049)"/><path class="cls-21" d="M555.54349,268.22631c.1435-4.1016,4.9326-34.2754,4.9326-34.2754-7.5767,1.6416-18.20749,4.4092-21.85059,7.6406-5.8862,5.2227-9.6025,14.1495-5.3808,25.5215,3.9965,10.7656,20.5996,20.7071,29.14789,13.7656A14.72489,14.72489,0,0,1,555.54349,268.22631Z" transform="translate(0 31.70049)"/><path class="cls-8" d="M559.74709,239.239s-3.2129,3.1113-4.61179,10.3379c-1.39891,7.2256-2.71631,11.166-5.17191,6.374-2.45509-4.793-3.1255-12.4609-9.37549-7.8564-4.1313,3.0439-4.0566,9.0556-2.793,12.3418,1.2637,3.2861-2.9086,10.5283-11.4794,7.7841-8.5704-2.7451-14.2505-25.913-14.2505-25.913S551.27979,230.04371,559.74709,239.239Z" transform="translate(0 31.70049)"/><path class="cls-11" d="M563.63819,210.11691s11.523,2.8731,12.5918,12.6416c.9487,8.6739-3.7393,17.1358-19.1318,16.4551-15.39259-.6807-16.417,8.9092-24.55279,11.4727-8.1357,2.5634-16.3261.1621-20.2382-7.8584-4.0586-8.3203-2.7989-18.4512,7.1889-26.6875C529.4839,207.905,562.56789,196.12861,563.63819,210.11691Z" transform="translate(0 31.70049)"/><path class="cls-22" d="M455.8003,424.13261c0,19.3125-20.6133,66.2334,19.814,65.788,40.3428-.4443,164.17919,0,164.17919,0s8.438-16.6123-3.0327-27.0283-80.917-25.6582-89.3794-36.2578C538.9195,416.03391,455.8003,424.13261,455.8003,424.13261Z" transform="translate(0 31.70049)"/><path class="cls-23" d="M526.2188,481.87081c-72.2539,0-51.8057-56.6181-52.5137-59.1826-10.5527.7276-17.9048,1.4444-17.9048,1.4444,0,19.3125-20.6133,66.2334,19.814,65.788,28.8911-.3183,100.59519-.1806,138.97949-.0771C610.25589,488.80741,536.0445,481.87081,526.2188,481.87081Z" transform="translate(0 31.70049)"/><path class="cls-10" d="M548.36819,294.32491c8.0127.3858,21.2915,11.1241,21.2915,27.4932,0,21.623-3.96439,51.8135-13.7212,67.1074-9.7568,15.2949,8.77881,33.6192-7.5703,40.2119-16.34909,6.5928-92.10649,7.5166-95.00679-3.5576-2.9009-11.0762,13.0136-86.3633,17.5356-101.2597,4.4829-14.7666,12.5254-25.5782,18.5903-28.2149C495.5523,293.46851,533.6582,293.61691,548.36819,294.32491Z" transform="translate(0 31.70049)"/><path class="cls-9" d="M464.3223,406.406c-.418-9.3252-1.2598-19.3906.8081-28.502,14.3755-63.3398,30.3311-70.0312,36.7163-75.5254,7.5493-6.496,16.6397-2.2246,26.6929-2.5634,13.5874-.458,18.646-5.5196,18.7617-5.5381-15.396-.6651-51.8887-.7481-57.814,1.8281-6.0649,2.6367-14.1074,13.4483-18.5903,28.2149-4.522,14.8964-20.4365,90.1835-17.5356,101.2597,1.2719,4.8565,16.5581,7.4053,34.7002,8.1807C475.1988,430.65211,465.0132,421.82691,464.3223,406.406Z" transform="translate(0 31.70049)"/><path class="cls-4" d="M548.36819,294.32491c-4.88619-2.5371-9.15629-.6894-13.65719-5.0429-8.0572-7.794-20.6895-6.0869-20.6895-6.0869l-6.2749,10.6865S531.3711,305.89521,548.36819,294.32491Z" transform="translate(0 31.70049)"/><path class="cls-10" d="M545.27149,297.446c6.50881-5.8496,23.86481,1.5508,35.2036,16.0547,11.3389,14.5029,34.98,69.3692,40.9248,81.8604,5.5376,11.6357-11.3388,31.9072-29.7978,13.1845-18.4585-18.7226-32.419-47.5908-39.0113-68.1591C545.99859,319.81811,538.2085,303.79271,545.27149,297.446Z" transform="translate(0 31.70049)"/><path class="cls-7" d="M536.3926,413.71261H423.0445a5.83277,5.83277,0,0,1-5.5591-4.5293l-8.001-32.0605a5.76625,5.76625,0,0,1,5.3521-7.3496H528.1846a5.83177,5.83177,0,0,1,5.5586,4.5293l8.001,32.0605A5.76576,5.76576,0,0,1,536.3926,413.71261Z" transform="translate(0 31.70049)"/><path class="cls-5" d="M533.1289,413.71261H422.8321a5.48835,5.48835,0,0,1-5.3321-4.1855l-7.2412-29.6309a5.4894,5.4894,0,0,1,5.3325-6.792H525.8882a5.489,5.489,0,0,1,5.3325,4.1866l7.2408,29.6298A5.48938,5.48938,0,0,1,533.1289,413.71261Z" transform="translate(0 31.70049)"/><rect class="cls-10" x="558.83939" y="521.6211" width="86.4917" height="8.8995"/><polygon class="cls-4" points="541.237 528.478 548.753 528.478 523.438 694.324 515.923 694.324 541.237 528.478"/><polygon class="cls-4" points="452.834 528.478 460.349 528.478 435.035 694.324 427.519 694.324 452.834 528.478"/><rect class="cls-7" x="443.9341" y="521.6211" width="114.90529" height="8.8995"/><path class="cls-6" d="M546.66409,495.92061a3.09971,3.09971,0,0,1-3.00049-2.3281l-26.9053-104.918a3.09889,3.09889,0,0,1,6.0034-1.54l26.90529,104.918a3.09649,3.09649,0,0,1-3.0029,3.8681Z" transform="translate(0 31.70049)"/><path class="cls-4" d="M543.5655,495.92061a3.09872,3.09872,0,0,1-3-2.3281l-26.9053-104.918a3.09865,3.09865,0,0,1,6.0029-1.54l26.90529,104.918a3.09658,3.09658,0,0,1-3.00289,3.8681Z" transform="translate(0 31.70049)"/><path class="cls-6" d="M458.9346,495.92061a3.09872,3.09872,0,0,1-3-2.3281l-26.9053-104.918a3.09869,3.09869,0,0,1,6.003-1.54l26.9052,104.918a3.09649,3.09649,0,0,1-3.0029,3.8681Z" transform="translate(0 31.70049)"/><path class="cls-4" d="M455.836,495.92061a3.09915,3.09915,0,0,1-3-2.3281l-26.9053-104.918a3.09889,3.09889,0,0,1,6.0034-1.54l26.9053,104.918a3.09658,3.09658,0,0,1-3.0034,3.8681Z" transform="translate(0 31.70049)"/><path class="cls-10" d="M605.76319,416.15791c18.813,2.3575,49.063-.0019,87.0357-1.1445,0,0,4.5156-14.625-1.418-24.5137,0,0-72.3545-3.9726-80.0674-3.7744C603.60059,386.92261,586.18409,413.70481,605.76319,416.15791Z" transform="translate(0 31.70049)"/></g></g></g></svg>