<svg xmlns="http://www.w3.org/2000/svg" viewBox="0 0 52.49062 74.5519"><defs><style>.cls-1{fill:#fff;}</style></defs><g id="Layer_2" data-name="Layer 2"><g id="Layer_1-2" data-name="Layer 1"><path class="cls-1" d="M26.63812,63.565l13.46313-3.85816L40.2,58.55951,41.74339,40.681l.16025-1.82358,1.18568-13.74519H10.18475l.85828,6.79109H35.89164l-.59761,6.9541H26.637v6.79094h8.08744l-.76234,8.80743L26.637,56.50009v.01708l-6.80536-1.81012-.48322-5.26737H12.53507l.9509,10.36995,13.15215,3.78562Zm25.8525-48.65461-4.782,53.67113L26.21319,74.5519,4.777,68.58992,0,14.91038ZM10.82882,38.745l.74276,6.77086,15.06545.16216V38.88938Z"/><polygon class="cls-1" points="12.535 0 21.153 0 21.153 3.4 16.139 3.4 16.139 6.801 21.153 6.801 21.153 10.202 12.535 10.202 12.535 0"/><polygon class="cls-1" points="22.72 0 31.338 0 31.338 2.915 26.324 2.915 26.324 3.498 31.338 3.498 31.338 10.202 22.72 10.202 22.72 7.141 27.734 7.141 27.734 6.558 22.72 6.558 22.72 0"/><polygon class="cls-1" points="32.121 0 40.739 0 40.739 2.915 35.725 2.915 35.725 3.498 40.739 3.498 40.739 10.202 32.121 10.202 32.121 7.141 37.135 7.141 37.135 6.558 32.121 6.558 32.121 0"/></g></g></svg>