<svg xmlns="http://www.w3.org/2000/svg" viewBox="0 0 119.28848 41.56403"><defs><style>.cls-1{fill:#fff;fill-rule:evenodd;}</style></defs><g id="Layer_2" data-name="Layer 2"><g id="Layer_1-2" data-name="Layer 1"><path class="cls-1" d="M14.16683,0h6.35389V30.075c-6.09036.9957-11.92342,1.62725-16.09644-.70611-5.373-3.00413-5.80488-12.55044-1.5532-16.80226,2.15556-2.15548,6.4953-3.67311,11.15455-2.6827V.42373C14.01361.22323,14.00231.02363,14.16683,0ZM6.54227,20.33241c-.02078,3.94257,2.87012,6.29282,7.48336,5.22417V15.10822C9.35419,13.68557,6.56186,16.56375,6.54227,20.33241Z"/><path class="cls-1" d="M30.828,0V6.63627H24.47415V0Z"/><path class="cls-1" d="M107.35646,9.60136c5.28964-.56552,9.28022,1.76858,10.87225,5.36552,2.71645,6.137-.14942,13.17876-4.51821,15.24927a12.93857,12.93857,0,0,1-6.77761.98835c-6.621-.5774-10.79681-7.32508-8.47166-14.82583a10.19533,10.19533,0,0,1,.98835-2.259C100.88882,11.67259,103.31863,10.03315,107.35646,9.60136ZM107.07407,25.839c6.92659,2.69179,7.69289-12.39808.70613-11.01344C103.44118,15.68562,103.58047,24.48134,107.07407,25.839Z"/><path class="cls-1" d="M50.73672,30.35734c-5.24863.30191-13.225,2.08988-16.09645-1.41194-1.68684-2.05745-1.50543-5.98183,0-7.907,1.94562-2.48777,6.19267-3.03024,10.025-3.38866a3.63028,3.63028,0,0,0-.28239-2.82418c-3.50549-.893-6.98846.49067-9.46009,1.55314V11.43688c3.73306-1.715,12.37981-3.52106,14.9668.42357,1.3586,2.07184.84711,5.68506.84711,8.89538ZM39.5823,23.43867c-1.75737,2.95349,2.658,3.66107,5.5065,2.824V21.88553C42.90015,22.19111,40.40913,22.0489,39.5823,23.43867Z"/><path class="cls-1" d="M73.04583,30.63987H66.69194V22.45032c0-2.69635.43622-6.11539-.98849-7.20105-1.11591-.85054-3.76293-.42374-5.36524,0v15.3906H53.98426V11.01344c6.49515-1.68729,18.21954-3.49609,19.06157,4.6594C73.46105,19.69379,72.7382,25.7264,73.04583,30.63987Z"/><path class="cls-1" d="M98.46123,10.44867a41.49634,41.49634,0,0,1-2.11791,4.65955c-.6549.14677-1.22247-.26024-1.55329,0-.145,6.8827,1.4658,16.21325-1.27075,21.17927-1.64766,2.99-4.68127,4.90819-9.319,5.22434a18.97085,18.97085,0,0,1-8.47181-1.27076V34.31092c2.89844,1.69227,10.22234,3.07192,12.284-.42373.60661-1.02842.56816-2.0915.84717-3.671-1.3274.06971-2.61605.68439-4.23583.706-6.659.08836-10.77876-5.21376-9.17776-12.56658a10.0092,10.0092,0,0,1,4.51836-6.49508C84.60173,9.03422,91.7297,9.24881,98.46123,10.44867ZM82.506,23.86226c1.06923,1.72984,3.96444,2.37858,6.35374,1.27075q-.19682-4.95684-.14119-10.16613C83.22737,13.516,79.955,19.73577,82.506,23.86226Z"/><path class="cls-1" d="M30.828,9.9966c-.00719,4.67879-.00609,8.04088-.0066,13.725-.27,5.586-.20718,10.03419-2.2525,12.70705a11.8767,11.8767,0,0,1-1.9768,1.83567,6.84163,6.84163,0,0,1-2.40038,1.41194c-.6565.04035-2.343-.91131-3.10634-1.27075a22.73958,22.73958,0,0,0-2.965-1.41194c2.4168-1.49766,4.71113-2.62047,5.64769-5.64791.81465-2.63279.706-6.44811.706-10.16613,0-3.67135.01644-7.93976.01644-11.18135Z"/></g></g></svg>