<svg xmlns="http://www.w3.org/2000/svg" viewBox="0 0 53.03176 74.5519"><defs><style>.cls-1{fill:#fff;}</style></defs><g id="Layer_2" data-name="Layer 2"><g id="Layer_1-2" data-name="Layer 1"><path class="cls-1" d="M5.38,0H8.72551V3.30154h3.08366V0h3.34547V9.99149H11.80917V6.661H8.7546v3.3305H5.38m14.19646-6.661H16.62374V0h9.26552V3.3305H22.922v6.661H19.57649M27.35835,0h3.50548l2.15274,3.51874L35.16931,0h3.50548V9.99149H35.32932V5.03919L32.98748,8.63033,30.64565,5.03919v4.9523h-3.2873M40.333,0h3.34548V6.69h4.74185V9.99149H40.333M26.13159,45.44457v.03027h8.32062l-.78749,8.64238-7.10382,1.8786-7.19547-1.901-.47463-5.31312H12.12732l.94926,10.436,13.055,3.594v.21158l.38555-.10544.383.10544v-.2102l13.04959-3.569L41.807,38.82461H26.90017v-.01046h-8.8993l-.623-6.80607h8.75368v.00517H42.41623l.624-6.65023H9.99149l1.83919,20.08155ZM4.82373,68.57741,0,14.603H53.03176L48.208,68.54826,26.472,74.5519Z"/></g></g></svg>