<svg xmlns="http://www.w3.org/2000/svg" viewBox="0 0 64.05192 64.05192"><defs><style>.cls-1{fill:#fff;}</style></defs><g id="Layer_2" data-name="Layer 2"><g id="Layer_1-2" data-name="Layer 1"><path class="cls-1" d="M0,0V64.05192H64.05192V0ZM34.85666,49.95727c0,6.23438-3.65443,9.07208-8.98608,9.07208a9.34254,9.34254,0,0,1-9.02888-5.503l-.00011.00008-.00012-.0005.00023.00042,4.90157-2.96632c.94566,1.67664,1.80589,3.09522,3.86925,3.09522,1.9779,0,3.22486-.77372,3.22486-3.78313V29.406h6.01928Zm14.23326,9.07258c-5.5894,0-9.20113-2.66557-10.96366-6.14837h-.00012l4.90111-2.8377c1.29019,2.107,2.967,3.65473,5.93354,3.65473,2.49406,0,4.08446-1.247,4.08446-2.96683,0-2.06379-1.63371-2.79481-4.38552-3.99826l-1.5044-.6454c-4.34283-1.84846-7.22362-4.1702-7.22362-9.07181,0-4.51454,3.43957-7.95433,8.81426-7.95433,3.82663,0,6.57833,1.333,8.55592,4.81568l-4.6866,3.00952c-1.03193-1.84865-2.14949-2.57945-3.86925-2.57945a2.619,2.619,0,0,0-2.88078,2.57945c0,1.80589,1.11794,2.537,3.69743,3.65493l1.5047.6449c5.11652,2.19292,7.99734,4.42842,7.99734,9.45877C59.06473,56.06345,54.80821,59.02985,49.08992,59.02985Z"/></g></g></svg>