<svg xmlns="http://www.w3.org/2000/svg" viewBox="0 0 145.93096 38.9702"><defs><style>.cls-1{fill:#fff;fill-rule:evenodd;}</style></defs><g id="Layer_2" data-name="Layer 2"><g id="Layer_1-2" data-name="Layer 1"><path class="cls-1" d="M73.09854.00006a.58157.58157,0,0,0-.58231.58278V15.44376a.39349.39349,0,0,1-.1941.34973.40469.40469,0,0,1-.40761,0l-2.42627-1.39868a1.16211,1.16211,0,0,0-1.16461,0L58.638,19.98952a1.19352,1.19352,0,0,0-.5823,1.02955V32.20849a1.16343,1.16343,0,0,0,.5823,1.01016l9.68565,5.59471a1.15939,1.15939,0,0,0,1.16461,0l9.68565-5.59471a1.16344,1.16344,0,0,0,.58231-1.01016V4.31265a1.18445,1.18445,0,0,0-.60171-1.02959L73.38969.05833a.569.569,0,0,0-.29115-.05824ZM10.792,13.96738a1.09467,1.09467,0,0,0-.52407.136L.5823,19.6981A1.16091,1.16091,0,0,0,0,20.70826L.01937,35.72458a.57381.57381,0,0,0,.29115.50514.565.565,0,0,0,.5823,0l5.7454-3.30249a1.18686,1.18686,0,0,0,.60171-1.01016V24.90429a1.16,1.16,0,0,1,.58231-1.01016l2.44568-1.41807a1.1686,1.1686,0,0,1,1.1646,0l2.44568,1.41807a1.16,1.16,0,0,1,.5823,1.01016v7.01278a1.18888,1.18888,0,0,0,.60172,1.01016l5.74539,3.30249a.565.565,0,0,0,.58231,0,.58444.58444,0,0,0,.29115-.50514l.01937-15.01632a1.15584,1.15584,0,0,0-.58231-1.01016L11.4325,14.10339a1.08662,1.08662,0,0,0-.52407-.136H10.792Zm87.035.136a1.157,1.157,0,0,0-.5823.15541l-9.68565,5.59471a1.16268,1.16268,0,0,0-.5823,1.01015V32.05308a1.17016,1.17016,0,0,0,.60171,1.01016l9.608,5.47815a1.16455,1.16455,0,0,0,1.1452.01927l5.823-3.24419a.58891.58891,0,0,0,.31056-.50508.574.574,0,0,0-.29116-.50508L94.43026,28.7116a.62749.62749,0,0,1-.31056-.52453V24.69038a.59992.59992,0,0,1,.31056-.505l3.028-1.74841a.58089.58089,0,0,1,.5823,0l3.028,1.74841a.58113.58113,0,0,1,.29115.505v2.75856a.5823.5823,0,0,0,.87345.505l5.80363-3.38008a1.16791,1.16791,0,0,0,.5823-1.01016V20.86347a1.16618,1.16618,0,0,0-.5823-1.01016L98.40934,14.2586a1.15355,1.15355,0,0,0-.58231-.15541ZM68.86712,22.4566a.326.326,0,0,1,.15529.03854l3.31913,1.92322a.30135.30135,0,0,1,.15528.2525v3.84637a.29932.29932,0,0,1-.15528.25257L69.02241,30.693a.29315.29315,0,0,1-.29115,0L65.41213,28.7698a.30039.30039,0,0,1-.15529-.25257V24.67086a.30167.30167,0,0,1,.15529-.2525l3.31913-1.9229a.25554.25554,0,0,1,.13586-.03854Z"/><path class="cls-1" d="M128.0093,14.0956a1.92663,1.92663,0,0,0-.95452.23264l-9.17509,5.27317a1.92186,1.92186,0,0,0-.95452,1.66725v10.527a1.9235,1.9235,0,0,0,.95452,1.66719l2.39605,1.37648a3.93336,3.93336,0,0,0,2.12331.56218,2.53127,2.53127,0,0,0,2.70773-2.84981V22.16045a.26152.26152,0,0,0-.27272-.25206h-1.14932a.26011.26011,0,0,0-.27273.25206V32.55168c0,.80184-.8392,1.6082-2.20123.93056l-2.49345-1.454a.27409.27409,0,0,1-.15583-.23264v-10.527a.30722.30722,0,0,1,.15583-.252l9.15561-5.25381a.27131.27131,0,0,1,.27272,0l9.1556,5.25381a.30869.30869,0,0,1,.15585.252v10.527a.292.292,0,0,1-.13636.252l-9.17509,5.25381a.28377.28377,0,0,1-.27272,0l-2.35709-1.39584a.246.246,0,0,0-.23375,0,6.07925,6.07925,0,0,1-1.38308.62038c-.15039.05211-.37869.13319.07792.38773l3.07784,1.80293a1.93382,1.93382,0,0,0,1.909,0l9.17509-5.25381a1.92643,1.92643,0,0,0,.95452-1.66719v-10.527a1.92359,1.92359,0,0,0-.95452-1.66725l-9.17509-5.27317A1.92053,1.92053,0,0,0,128.0093,14.0956Zm-87.27046.21323a1.16774,1.16774,0,0,0-.5844.15509l-9.72052,5.564a1.19,1.19,0,0,0-.58441,1.02746v11.1667a1.15907,1.15907,0,0,0,.58441,1.00811l9.72052,5.58335a1.16834,1.16834,0,0,0,1.1688,0l9.72053-5.58335a1.15989,1.15989,0,0,0,.5844-1.00811V21.05538a1.18922,1.18922,0,0,0-.5844-1.02746l-9.72053-5.564A1.16774,1.16774,0,0,0,40.73884,14.30883Zm100.887.05831v.27141h.75972v1.9968h.31169v-1.9968h.77919v-.27141Zm2.12332,0v2.26821h.2922V15.2977c0-.05459.00249-.139,0-.252-.00373-.11508,0-.2154,0-.27148v-.05831l.64284,1.91924h.31168l.66232-1.91924c0,.12208-.01639.24-.01943.349-.00123.10609,0,.18575,0,.23264v1.33765h.2922V14.367h-.42856l-.66233,1.91931-.64284-1.91931h-.448Zm-13.28536,7.2506c-2.61267,0-4.16873,1.10656-4.16873,2.94677,0,1.9963,1.54437,2.54477,4.05185,2.79168,2.99991.29226,3.23368.73061,3.23368,1.31829,0,1.01933-.8166,1.454-2.74668,1.454-2.42488,0-2.95785-.60244-3.13629-1.80293a.2635.2635,0,0,0-.25324-.23264H126.2561a.27735.27735,0,0,0-.27272.27141c0,1.53667.84,3.35392,4.85053,3.35392,2.9033,0,4.5778-1.13416,4.5778-3.12127,0-1.96994-1.35269-2.49868-4.16872-2.86923-2.84565-.3747-3.1168-.55808-3.1168-1.22132,0-.54748.22986-1.27958,2.3376-1.27958,1.88255,0,2.57837.404,2.86356,1.66731a.266.266,0,0,0,.25324.21322h1.18828a.28809.28809,0,0,0,.1948-.097.25379.25379,0,0,0,.07792-.1938C134.85769,22.641,133.39981,21.61774,130.46379,21.61774Zm-31.59659,2.656a.24247.24247,0,0,0-.11688.01923l-1.87008,1.08565a.226.226,0,0,0-.11688.19386V27.705a.22643.22643,0,0,0,.11688.19387l1.87008,1.06624a.20492.20492,0,0,0,.21428,0l1.87008-1.06624a.22768.22768,0,0,0,.11688-.19387V25.57248a.22793.22793,0,0,0-.11688-.19386L98.9646,24.293A.16114.16114,0,0,0,98.8672,24.27374Z"/></g></g></svg>