<svg xmlns="http://www.w3.org/2000/svg" viewBox="0 0 68.42672 68.0704"><defs><style>.cls-1{fill:#fff;}</style></defs><g id="Layer_2" data-name="Layer 2"><g id="Layer_1-2" data-name="Layer 1"><path class="cls-1" d="M33.96669,0C16.59574,0,17.6805,7.53309,17.6805,7.53309l.01936,7.80421H34.27654v2.3432H11.11567S0,16.41988,0,33.94733,9.702,50.85322,9.702,50.85322h5.79022V42.7198s-.31211-9.702,9.54708-9.702H41.48042s9.23724.14932,9.23724-8.9274V9.08231S52.12013,0,33.96669,0ZM24.82628,5.248A2.98226,2.98226,0,1,1,21.844,8.23024,2.97944,2.97944,0,0,1,24.82628,5.248Z"/><path class="cls-1" d="M34.46,68.0704c17.371,0,16.2862-7.53309,16.2862-7.53309l-.01937-7.80421H34.15019V50.3899H57.31106s11.11566,1.26062,11.11566-16.26683-9.702-16.90589-9.702-16.90589H52.9345V25.3506s.31212,9.702-9.54708,9.702H26.9463s-9.23724-.14932-9.23724,8.9274V58.98809S16.3066,68.0704,34.46,68.0704Zm9.14041-5.248a2.98225,2.98225,0,1,1,2.98225-2.98225,2.97943,2.97943,0,0,1-2.98225,2.98225Z"/></g></g></svg>