<svg xmlns="http://www.w3.org/2000/svg" viewBox="0 0 75.32993 67.05191"><defs><style>.cls-1{fill:#fff;}</style></defs><g id="Layer_2" data-name="Layer 2"><g id="Layer_1-2" data-name="Layer 1"><path class="cls-1" d="M75.32993,33.53363c0-4.98784-6.24934-9.71478-15.83065-12.64609C61.71035,11.12672,60.72765,3.361,56.39764.87479A6.73462,6.73462,0,0,0,52.9582.01535V3.43777a3.557,3.557,0,0,1,1.75043.399c2.08823,1.19708,2.99416,5.7552,2.28785,11.61783-.16891,1.44264-.44529,2.962-.7831,4.51208a74.44346,74.44346,0,0,0-9.7502-1.67285,74.87265,74.87265,0,0,0-6.38754-7.6736c5.00562-4.6502,9.70415-7.19783,12.89791-7.19783V0h0c-4.22253,0-9.7502,3.00805-15.3393,8.2261C32.04516,3.03875,26.51749.06139,22.295.06139V3.48381c3.17841,0,7.89229,2.53229,12.8979,7.1518a72.49556,72.49556,0,0,0-6.34147,7.65825,71.73451,71.73451,0,0,0-9.76556,1.68819c-.35315-1.53472-.61418-3.02339-.79844-4.45068-.72167-5.86263.1689-10.42075,2.24178-11.63318a3.41855,3.41855,0,0,1,1.76579-.399V.07674h0a6.849,6.849,0,0,0-3.47015.85944c-4.31466,2.48625-5.282,10.23658-3.05558,19.96671C6.21863,23.84955,0,28.56114,0,33.53363c0,4.98784,6.24934,9.71478,15.83065,12.64609-2.21107,9.76082-1.22837,17.52651,3.10164,20.01275a6.75237,6.75237,0,0,0,3.45479.85944c4.22253,0,9.75021-3.00805,15.3393-8.2261,5.5891,5.18736,11.11677,8.16472,15.3393,8.16472a6.84905,6.84905,0,0,0,3.47015-.85945c4.31466-2.48624,5.282-10.23658,3.05558-19.9667C69.11129,43.23306,75.32993,38.50612,75.32993,33.53363ZM55.33817,23.29705c-.56812,1.97979-1.27444,4.021-2.07288,6.06214-.62954-1.22777-1.28979-2.45555-2.01146-3.68333-.70631-1.22777-1.45869-2.42485-2.21107-3.59124C51.22312,22.40691,53.32671,22.80594,55.33817,23.29705ZM48.30574,39.64182c-1.19767,2.07187-2.426,4.03631-3.70047,5.86263-2.28785.19951-4.6064.30694-6.94031.30694-2.31855,0-4.6371-.10743-6.90959-.2916q-1.91166-2.73946-3.71583-5.83193-1.75042-3.01573-3.19376-6.10819c.952-2.05652,2.02681-4.11305,3.17841-6.12353,1.19766-2.07187,2.426-4.03631,3.70047-5.86263,2.28784-.19951,4.6064-.30694,6.9403-.30694,2.31856,0,4.63711.10743,6.9096.29159q1.91166,2.73948,3.71582,5.83194,1.75044,3.01572,3.19377,6.10818C50.51681,35.57481,49.45734,37.63133,48.30574,39.64182Zm4.95955-1.99514c.82915,2.05653,1.53546,4.113,2.11895,6.10818-2.01147.49112-4.13041.90549-6.32612,1.22778.75238-1.18173,1.50475-2.39416,2.21107-3.63728C51.9755,40.11758,52.63575,38.87446,53.26529,37.64668ZM37.69567,54.02214a63.28123,63.28123,0,0,1-4.26859-4.9111c1.38192.06139,2.79455.10743,4.22253.10743,1.44334,0,2.87132-.0307,4.26859-.10743A59.91218,59.91218,0,0,1,37.69567,54.02214Zm-11.42386-9.0395c-2.18036-.32229-4.28395-.72132-6.29541-1.21243.56813-1.97979,1.27444-4.021,2.07288-6.06214.62954,1.22777,1.28979,2.45555,2.01146,3.68333S25.51943,43.81626,26.27181,44.98264ZM37.6189,13.04512a63.28128,63.28128,0,0,1,4.2686,4.9111c-1.38193-.06139-2.79455-.10743-4.22254-.10743-1.44333,0-2.87132.0307-4.26859.10743A59.91218,59.91218,0,0,1,37.6189,13.04512Zm-11.36244,9.0395c-.75238,1.18173-1.50476,2.39416-2.21107,3.63729-.70632,1.22777-1.36657,2.45555-1.99611,3.68332-.82915-2.05652-1.53546-4.11305-2.11894-6.10818C21.9418,22.82129,24.06074,22.40691,26.25646,22.08462ZM12.3605,41.29931C6.925,38.98189,3.40873,35.94314,3.40873,33.53363S6.925,28.07,12.3605,25.768c1.3205-.56785,2.76383-1.07431,4.25323-1.55007a73.68819,73.68819,0,0,0,3.4548,9.34644,72.64786,72.64786,0,0,0-3.40873,9.30041C15.13969,42.389,13.69635,41.86716,12.3605,41.29931Zm8.2608,21.93115c-2.08823-1.19708-2.99416-5.7552-2.28784-11.61783.1689-1.44264.44528-2.962.78308-4.51207a74.44532,74.44532,0,0,0,9.75021,1.67284,74.8739,74.8739,0,0,0,6.38753,7.6736c-5.00561,4.6502-9.70414,7.19784-12.89791,7.19784A3.66593,3.66593,0,0,1,20.6213,63.23046ZM57.04253,51.5359c.72167,5.86263-.16889,10.42075-2.24178,11.63317a3.41851,3.41851,0,0,1-1.76578.399c-3.17841,0-7.89229-2.53229-12.89791-7.1518a72.49209,72.49209,0,0,0,6.34147-7.65825,71.734,71.734,0,0,0,9.76556-1.68819A42.94118,42.94118,0,0,1,57.04253,51.5359Zm5.91155-10.23659c-1.3205.56785-2.76384,1.07431-4.25324,1.55007a73.68819,73.68819,0,0,0-3.4548-9.34644,72.64634,72.64634,0,0,0,3.40873-9.30041c1.52012.47577,2.96345.99757,4.31466,1.56542,5.43555,2.31743,8.95177,5.35617,8.95177,7.76568C71.90584,35.94314,68.38963,38.99723,62.95408,41.29931Z"/><circle class="cls-1" cx="37.66496" cy="33.52596" r="7.03631"/></g></g></svg>